<svg width="35" height="35" viewBox="0 0 35 35" fill="none" xmlns="http://www.w3.org/2000/svg">
<path d="M24.3113 12.4828C24.3112 12.2176 24.2059 11.9633 24.0184 11.7758C23.8309 11.5883 23.5766 11.483 23.3114 11.4829L15.3112 11.4829C15.1785 11.4806 15.0466 11.5048 14.9232 11.554C14.7999 11.6032 14.6876 11.6765 14.5929 11.7696C14.4982 11.8626 14.423 11.9736 14.3716 12.0961C14.3203 12.2186 14.2938 12.35 14.2938 12.4828C14.2938 12.6156 14.3203 12.747 14.3716 12.8695C14.423 12.9919 14.4982 13.1029 14.5929 13.196C14.6876 13.2891 14.7999 13.3624 14.9232 13.4116C15.0466 13.4608 15.1785 13.4849 15.3112 13.4826L20.8974 13.4826L11.5332 22.8469C11.3456 23.0344 11.2403 23.2887 11.2403 23.554C11.2403 23.8192 11.3456 24.0735 11.5332 24.2611C11.7207 24.4486 11.975 24.554 12.2403 24.554C12.5055 24.554 12.7598 24.4486 12.9474 24.2611L22.3116 14.8969L22.3116 20.483C22.3161 20.7452 22.4235 20.9951 22.6105 21.1788C22.7975 21.3626 23.0492 21.4656 23.3114 21.4656C23.5736 21.4656 23.8254 21.3626 24.0124 21.1788C24.1994 20.9951 24.3067 20.7452 24.3113 20.483L24.3113 12.4828Z" fill="white"/>
</svg>
