<svg width="18" height="14" viewBox="0 0 18 14" fill="none" xmlns="http://www.w3.org/2000/svg">
<path d="M0.636048 7.70698C0.448577 7.51945 0.343262 7.26514 0.343262 6.99998C0.343262 6.73481 0.448577 6.4805 0.636048 6.29298L6.29305 0.635977C6.3853 0.540466 6.49564 0.464284 6.61764 0.411875C6.73965 0.359466 6.87087 0.33188 7.00365 0.330726C7.13643 0.329572 7.26811 0.354874 7.391 0.405155C7.5139 0.455436 7.62555 0.529689 7.71944 0.623582C7.81334 0.717474 7.88759 0.829126 7.93787 0.952022C7.98815 1.07492 8.01345 1.2066 8.0123 1.33938C8.01115 1.47216 7.98356 1.60338 7.93115 1.72538C7.87874 1.84738 7.80256 1.95773 7.70705 2.04998L3.75705 5.99998L17 5.99998C17.2653 5.99998 17.5196 6.10533 17.7072 6.29287C17.8947 6.48041 18 6.73476 18 6.99998C18 7.26519 17.8947 7.51955 17.7072 7.70708C17.5196 7.89462 17.2653 7.99998 17 7.99998L3.75705 7.99998L7.70705 11.95C7.88921 12.1386 7.99 12.3912 7.98772 12.6534C7.98544 12.9156 7.88028 13.1664 7.69487 13.3518C7.50946 13.5372 7.25865 13.6424 6.99645 13.6447C6.73425 13.6469 6.48165 13.5461 6.29305 13.364L0.636048 7.70698Z" fill="black" fill-opacity="0.5"/>
</svg>
