<svg width="196" height="51" viewBox="0 0 196 51" fill="none" xmlns="http://www.w3.org/2000/svg">
<path fill-rule="evenodd" clip-rule="evenodd" d="M2.55207 36.1539C8.29755 46.3808 20.7978 51.1711 32.12 46.9217C44.6236 42.229 50.9555 28.2886 46.2628 15.7849C46.2613 15.781 46.2599 15.7771 46.2584 15.7732L33.5061 21.7197C34.9348 26.6249 32.3607 31.8779 27.4986 33.7027C23.1269 35.3435 18.3244 33.6801 15.8363 29.9593L2.55207 36.1539Z" fill="white"/>
<path fill-rule="evenodd" clip-rule="evenodd" d="M20.1453 0C19.6169 0.068243 19.0885 0.136486 18.5601 0.272981L21.0039 14.7409C21.5323 14.6045 22.0608 14.5362 22.5892 14.468L20.1453 0ZM19.6169 15.2869C19.0224 15.5599 18.4941 15.8329 17.9656 16.2424L10.8983 3.4805C11.1625 3.30987 11.4432 3.15631 11.724 3.00275C12.0046 2.84921 12.2853 2.69567 12.5495 2.52507L19.6169 15.2869ZM14.0687 22.6574C14.0027 23.1351 13.9366 23.6811 13.9366 24.227C13.9366 24.6508 13.9886 25.0209 14.0464 25.4326C14.0538 25.485 14.0612 25.538 14.0687 25.5919H0.0660679C0 25.1142 0 24.6365 0 24.1588C0 23.6128 0 23.1351 0.0660679 22.6574H14.0687ZM15.1037 28.9087C14.6088 27.9746 14.2539 26.9496 14.0687 25.8649L0.858645 30.8468C1.12284 31.9387 1.51917 32.9624 1.91546 33.9178L14.9934 28.936L14.9132 29.0069L15.1037 28.9087ZM15.1255 19.5181C14.7292 20.2688 14.3989 21.0878 14.2008 21.9749L1.05682 16.993C1.32101 16.1741 1.5852 15.3551 1.91546 14.5362L15.1255 19.5181ZM30.3831 17.4707L41.1492 8.12115C41.4134 8.39415 41.6776 8.73536 41.8758 9.00836L31.1096 18.3579C30.9114 18.0849 30.6473 17.7437 30.3831 17.4707ZM35.0545 2.95347C35.2911 3.09035 35.5452 3.23728 35.7992 3.41226L28.7979 16.0376C28.4018 15.7648 28.0057 15.5601 27.6097 15.3555L27.609 15.3551L34.6763 2.7298C34.7949 2.80331 34.922 2.87682 35.0545 2.95347ZM6.2087 7.57521L17.0409 16.993C16.4465 17.539 15.9841 18.0849 15.5218 18.7674L4.7556 9.34958C5.21796 8.73536 5.68032 8.12115 6.2087 7.57521ZM25.8256 14.7409C25.3633 14.6045 24.9009 14.5362 24.4385 14.468L26.8824 0C27.1136 0.0341214 27.3447 0.0853033 27.5759 0.136486C27.8071 0.187678 28.0383 0.23886 28.2695 0.272981L25.8256 14.7409Z" fill="white"/>
<path d="M44.5692 12.5232L32.3938 19.813L32.8743 20.6156L45.0498 13.3258L44.5692 12.5232Z" fill="white"/>
<path d="M64.3258 22.9819C64.0522 22.9819 63.8222 22.8887 63.6357 22.7022C63.4492 22.5157 63.356 22.2856 63.356 22.0121V9.38571C63.356 9.09974 63.4492 8.86972 63.6357 8.69565C63.8222 8.50914 64.0522 8.41589 64.3258 8.41589H72.7558C73.0418 8.41589 73.2718 8.50292 73.4459 8.677C73.62 8.83863 73.707 9.05622 73.707 9.32976C73.707 9.59087 73.62 9.80224 73.4459 9.96388C73.2718 10.1255 73.0418 10.2063 72.7558 10.2063H65.2956V14.7384H70.6483C70.9343 14.7384 71.1643 14.8254 71.3384 14.9995C71.5124 15.1612 71.5995 15.3725 71.5995 15.6336C71.5995 15.8947 71.5124 16.1123 71.3384 16.2864C71.1643 16.448 70.9343 16.5289 70.6483 16.5289H65.2956V21.1915H72.7558C73.0418 21.1915 73.2718 21.2723 73.4459 21.4339C73.62 21.5956 73.707 21.807 73.707 22.0681C73.707 22.3416 73.62 22.5654 73.4459 22.7395C73.2718 22.9011 73.0418 22.9819 72.7558 22.9819H64.3258ZM78.653 22.9819C78.1059 22.9819 77.621 22.8327 77.1983 22.5343C76.7755 22.2359 76.446 21.8318 76.2098 21.322C75.9736 20.7998 75.8554 20.203 75.8554 19.5316V9.34841C75.8554 9.07487 75.9425 8.85107 76.1165 8.677C76.2906 8.50292 76.5144 8.41589 76.788 8.41589C77.0615 8.41589 77.2853 8.50292 77.4594 8.677C77.6335 8.85107 77.7205 9.07487 77.7205 9.34841V19.5316C77.7205 19.9916 77.8075 20.3709 77.9816 20.6693C78.1557 20.9677 78.3795 21.1169 78.653 21.1169H79.1193C79.3679 21.1169 79.5669 21.2039 79.7161 21.378C79.8777 21.5521 79.9585 21.7759 79.9585 22.0494C79.9585 22.3229 79.8404 22.5468 79.6042 22.7208C79.3679 22.8949 79.0633 22.9819 78.6903 22.9819H78.653ZM82.9576 22.9819C82.6841 22.9819 82.4541 22.8949 82.2676 22.7208C82.0935 22.5343 82.0065 22.3043 82.0065 22.0308V13.7313C82.0065 13.4453 82.0935 13.2153 82.2676 13.0412C82.4541 12.8671 82.6841 12.7801 82.9576 12.7801C83.2436 12.7801 83.4736 12.8671 83.6477 13.0412C83.8218 13.2153 83.9088 13.4453 83.9088 13.7313V22.0308C83.9088 22.3043 83.8218 22.5343 83.6477 22.7208C83.4736 22.8949 83.2436 22.9819 82.9576 22.9819ZM82.9576 11.1202C82.6219 11.1202 82.3297 11.0021 82.0811 10.7659C81.8448 10.5172 81.7267 10.225 81.7267 9.88928C81.7267 9.55357 81.8448 9.26759 82.0811 9.03136C82.3297 8.78268 82.6219 8.65835 82.9576 8.65835C83.2933 8.65835 83.5793 8.78268 83.8156 9.03136C84.0642 9.26759 84.1886 9.55357 84.1886 9.88928C84.1886 10.225 84.0642 10.5172 83.8156 10.7659C83.5793 11.0021 83.2933 11.1202 82.9576 11.1202ZM91.1593 22.9819C90.5377 22.9819 89.9781 22.8265 89.4808 22.5157C88.9835 22.1924 88.5918 21.7572 88.3058 21.2101C88.0198 20.6631 87.8769 20.0476 87.8769 19.3637V10.4674C87.8769 10.1939 87.9639 9.9701 88.138 9.79603C88.312 9.62195 88.5358 9.53492 88.8094 9.53492C89.0829 9.53492 89.3067 9.62195 89.4808 9.79603C89.6549 9.9701 89.7419 10.1939 89.7419 10.4674V19.3637C89.7419 19.8611 89.8787 20.2776 90.1522 20.6133C90.4258 20.949 90.7615 21.1169 91.1593 21.1169H91.7935C92.0173 21.1169 92.2038 21.2039 92.353 21.378C92.5146 21.5521 92.5954 21.7759 92.5954 22.0494C92.5954 22.3229 92.4897 22.5468 92.2784 22.7208C92.0794 22.8949 91.8183 22.9819 91.4951 22.9819H91.1593ZM87.0189 14.7571C86.7578 14.7571 86.5465 14.6825 86.3848 14.5333C86.2232 14.3841 86.1424 14.1975 86.1424 13.9737C86.1424 13.7251 86.2232 13.5261 86.3848 13.3769C86.5465 13.2277 86.7578 13.1531 87.0189 13.1531H91.3272C91.5883 13.1531 91.7997 13.2277 91.9613 13.3769C92.123 13.5261 92.2038 13.7251 92.2038 13.9737C92.2038 14.1975 92.123 14.3841 91.9613 14.5333C91.7997 14.6825 91.5883 14.7571 91.3272 14.7571H87.0189ZM99.7268 23.0565C98.6948 23.0565 97.7747 22.8389 96.9665 22.4038C96.1707 21.9562 95.5428 21.3469 95.0828 20.576C94.6352 19.7927 94.4114 18.8975 94.4114 17.8903C94.4114 16.8708 94.6228 15.9756 95.0455 15.2047C95.4807 14.4214 96.0775 13.8121 96.8359 13.3769C97.5944 12.9293 98.4648 12.7055 99.447 12.7055C100.417 12.7055 101.25 12.9231 101.946 13.3583C102.642 13.781 103.171 14.3716 103.531 15.1301C103.904 15.8761 104.091 16.7402 104.091 17.7225C104.091 17.9587 104.01 18.1577 103.849 18.3193C103.687 18.4685 103.482 18.5431 103.233 18.5431H95.7169V17.0511H103.177L102.412 17.5733C102.4 16.9516 102.276 16.3983 102.039 15.9134C101.803 15.416 101.467 15.0244 101.032 14.7384C100.597 14.4524 100.069 14.3094 99.447 14.3094C98.7383 14.3094 98.129 14.4649 97.6193 14.7757C97.1219 15.0866 96.7427 15.5155 96.4816 16.0626C96.2205 16.5972 96.0899 17.2065 96.0899 17.8903C96.0899 18.5742 96.2453 19.1834 96.5562 19.7181C96.867 20.2527 97.296 20.6755 97.8431 20.9863C98.3902 21.2972 99.0181 21.4526 99.7268 21.4526C100.112 21.4526 100.504 21.3842 100.902 21.2474C101.312 21.0982 101.642 20.9304 101.89 20.7439C102.077 20.6071 102.276 20.5387 102.487 20.5387C102.711 20.5263 102.904 20.5885 103.065 20.7252C103.277 20.9117 103.388 21.1169 103.401 21.3407C103.413 21.5645 103.314 21.7572 103.103 21.9189C102.68 22.2546 102.151 22.5281 101.517 22.7395C100.896 22.9508 100.299 23.0565 99.7268 23.0565Z" fill="white"/>
<path d="M75.39 45C74.7683 45 74.2088 44.8446 73.7115 44.5337C73.2141 44.2105 72.8224 43.7753 72.5365 43.2282C72.2505 42.6811 72.1075 42.0657 72.1075 41.3818V32.4855C72.1075 32.212 72.1945 31.9882 72.3686 31.8141C72.5427 31.64 72.7665 31.553 73.04 31.553C73.3136 31.553 73.5374 31.64 73.7115 31.8141C73.8855 31.9882 73.9726 32.212 73.9726 32.4855V41.3818C73.9726 41.8791 74.1093 42.2957 74.3829 42.6314C74.6564 42.9671 74.9921 43.1349 75.39 43.1349H76.0241C76.2479 43.1349 76.4344 43.222 76.5836 43.3961C76.7453 43.5701 76.8261 43.7939 76.8261 44.0675C76.8261 44.341 76.7204 44.5648 76.509 44.7389C76.3101 44.913 76.049 45 75.7257 45H75.39ZM71.2496 36.7751C70.9885 36.7751 70.7771 36.7005 70.6155 36.5513C70.4538 36.4021 70.373 36.2156 70.373 35.9918C70.373 35.7431 70.4538 35.5442 70.6155 35.395C70.7771 35.2458 70.9885 35.1712 71.2496 35.1712H75.5579C75.819 35.1712 76.0303 35.2458 76.192 35.395C76.3536 35.5442 76.4344 35.7431 76.4344 35.9918C76.4344 36.2156 76.3536 36.4021 76.192 36.5513C76.0303 36.7005 75.819 36.7751 75.5579 36.7751H71.2496ZM83.9574 45.0746C82.9254 45.0746 82.0053 44.857 81.1972 44.4218C80.4014 43.9742 79.7735 43.365 79.3135 42.5941C78.8658 41.8108 78.642 40.9155 78.642 39.9084C78.642 38.8889 78.8534 37.9936 79.2761 37.2227C79.7113 36.4394 80.3081 35.8302 81.0666 35.395C81.8251 34.9474 82.6954 34.7236 83.6777 34.7236C84.6475 34.7236 85.4806 34.9412 86.1768 35.3763C86.8731 35.7991 87.4016 36.3897 87.7621 37.1481C88.1351 37.8942 88.3216 38.7583 88.3216 39.7406C88.3216 39.9768 88.2408 40.1757 88.0792 40.3374C87.9175 40.4866 87.7124 40.5612 87.4637 40.5612H79.9476V39.0691H87.4078L86.6431 39.5914C86.6307 38.9697 86.5063 38.4164 86.2701 37.9315C86.0338 37.4341 85.6981 37.0425 85.263 36.7565C84.8278 36.4705 84.2994 36.3275 83.6777 36.3275C82.9689 36.3275 82.3597 36.4829 81.8499 36.7938C81.3526 37.1046 80.9733 37.5336 80.7122 38.0807C80.4511 38.6153 80.3206 39.2246 80.3206 39.9084C80.3206 40.5923 80.476 41.2015 80.7868 41.7362C81.0977 42.2708 81.5266 42.6936 82.0737 43.0044C82.6208 43.3152 83.2487 43.4707 83.9574 43.4707C84.3429 43.4707 84.7345 43.4023 85.1324 43.2655C85.5427 43.1163 85.8722 42.9484 86.1209 42.7619C86.3074 42.6252 86.5063 42.5568 86.7177 42.5568C86.9415 42.5444 87.1342 42.6065 87.2959 42.7433C87.5072 42.9298 87.6191 43.1349 87.6316 43.3588C87.644 43.5826 87.5445 43.7753 87.3332 43.9369C86.9104 44.2726 86.382 44.5462 85.7479 44.7575C85.1262 44.9689 84.5294 45.0746 83.9574 45.0746ZM95.009 45.0746C94.0143 45.0746 93.1253 44.8508 92.342 44.4032C91.5711 43.9431 90.9619 43.3277 90.5142 42.5568C90.0791 41.7735 89.8615 40.8907 89.8615 39.9084C89.8615 38.9013 90.0791 38.0061 90.5142 37.2227C90.9494 36.4394 91.5462 35.8302 92.3047 35.395C93.0631 34.9474 93.9335 34.7236 94.9158 34.7236C95.6493 34.7236 96.3208 34.8666 96.93 35.1525C97.5393 35.4261 98.0863 35.8426 98.5713 36.4021C98.7453 36.6011 98.8075 36.8062 98.7578 37.0176C98.708 37.229 98.5713 37.4155 98.3475 37.5771C98.1734 37.7014 97.9807 37.745 97.7693 37.7077C97.5579 37.6579 97.3652 37.546 97.1911 37.3719C96.5819 36.7254 95.8234 36.4021 94.9158 36.4021C94.2816 36.4021 93.7221 36.5513 93.2372 36.8497C92.7523 37.1357 92.3731 37.5398 92.0995 38.062C91.826 38.5842 91.6892 39.1997 91.6892 39.9084C91.6892 40.5798 91.826 41.1766 92.0995 41.6989C92.3855 42.2211 92.7772 42.6376 93.2745 42.9484C93.7719 43.2469 94.35 43.3961 95.009 43.3961C95.4442 43.3961 95.8234 43.3463 96.1467 43.2469C96.4824 43.1349 96.787 42.9671 97.0606 42.7433C97.2595 42.5817 97.4647 42.4946 97.676 42.4822C97.8874 42.4573 98.0739 42.5133 98.2356 42.65C98.4469 42.8241 98.565 43.023 98.5899 43.2469C98.6148 43.4582 98.5402 43.6509 98.3661 43.825C97.4709 44.6581 96.3519 45.0746 95.009 45.0746ZM102.536 41.2885C102.263 41.2885 102.033 41.2015 101.846 41.0274C101.672 40.8409 101.585 40.6109 101.585 40.3374V31.3851C101.585 31.0992 101.672 30.8691 101.846 30.6951C102.033 30.521 102.263 30.434 102.536 30.434C102.822 30.434 103.052 30.521 103.226 30.6951C103.4 30.8691 103.487 31.0992 103.487 31.3851V40.3374C103.487 40.6109 103.4 40.8409 103.226 41.0274C103.052 41.2015 102.822 41.2885 102.536 41.2885ZM110.201 45.0187C109.928 45.0187 109.698 44.9316 109.511 44.7575C109.337 44.571 109.25 44.341 109.25 44.0675V39.4795C109.25 38.7707 109.12 38.1926 108.859 37.745C108.598 37.2973 108.243 36.9678 107.796 36.7565C107.36 36.5327 106.857 36.4208 106.285 36.4208C105.763 36.4208 105.29 36.5265 104.867 36.7378C104.445 36.9492 104.109 37.2352 103.86 37.5957C103.612 37.9439 103.487 38.348 103.487 38.808H102.312C102.312 38.0247 102.499 37.3284 102.872 36.7192C103.257 36.0975 103.779 35.6064 104.438 35.2458C105.097 34.8852 105.837 34.7049 106.658 34.7049C107.516 34.7049 108.28 34.8914 108.952 35.2644C109.636 35.625 110.17 36.1597 110.556 36.8684C110.954 37.5771 111.153 38.4475 111.153 39.4795V44.0675C111.153 44.341 111.059 44.571 110.873 44.7575C110.699 44.9316 110.475 45.0187 110.201 45.0187ZM102.536 45.0187C102.263 45.0187 102.033 44.9316 101.846 44.7575C101.672 44.571 101.585 44.341 101.585 44.0675V35.7493C101.585 35.4634 101.672 35.2334 101.846 35.0593C102.033 34.8852 102.263 34.7982 102.536 34.7982C102.822 34.7982 103.052 34.8852 103.226 35.0593C103.4 35.2334 103.487 35.4634 103.487 35.7493V44.0675C103.487 44.341 103.4 44.571 103.226 44.7575C103.052 44.9316 102.822 45.0187 102.536 45.0187ZM122.933 45.0187C122.659 45.0187 122.429 44.9316 122.243 44.7575C122.068 44.571 121.981 44.341 121.981 44.0675V39.4795C121.981 38.7707 121.851 38.1926 121.59 37.745C121.329 37.2973 120.974 36.9678 120.527 36.7565C120.092 36.5327 119.588 36.4208 119.016 36.4208C118.494 36.4208 118.021 36.5265 117.599 36.7378C117.176 36.9492 116.84 37.2352 116.591 37.5957C116.343 37.9439 116.218 38.348 116.218 38.808H115.043C115.043 38.0247 115.23 37.3284 115.603 36.7192C115.988 36.0975 116.511 35.6064 117.17 35.2458C117.829 34.8852 118.568 34.7049 119.389 34.7049C120.247 34.7049 121.012 34.8914 121.683 35.2644C122.367 35.625 122.902 36.1597 123.287 36.8684C123.685 37.5771 123.884 38.4475 123.884 39.4795V44.0675C123.884 44.341 123.791 44.571 123.604 44.7575C123.43 44.9316 123.206 45.0187 122.933 45.0187ZM115.267 45.0187C114.994 45.0187 114.764 44.9316 114.577 44.7575C114.403 44.571 114.316 44.341 114.316 44.0675V35.7493C114.316 35.4634 114.403 35.2334 114.577 35.0593C114.764 34.8852 114.994 34.7982 115.267 34.7982C115.553 34.7982 115.783 34.8852 115.957 35.0593C116.131 35.2334 116.218 35.4634 116.218 35.7493V44.0675C116.218 44.341 116.131 44.571 115.957 44.7575C115.783 44.9316 115.553 45.0187 115.267 45.0187ZM131.654 45.0746C130.647 45.0746 129.758 44.857 128.987 44.4218C128.216 43.9742 127.607 43.365 127.16 42.5941C126.724 41.8108 126.507 40.9155 126.507 39.9084C126.507 38.8889 126.724 37.9936 127.16 37.2227C127.607 36.4394 128.216 35.8302 128.987 35.395C129.758 34.9474 130.647 34.7236 131.654 34.7236C132.649 34.7236 133.532 34.9474 134.303 35.395C135.074 35.8302 135.677 36.4394 136.112 37.2227C136.559 37.9936 136.783 38.8889 136.783 39.9084C136.783 40.9155 136.566 41.8108 136.13 42.5941C135.695 43.365 135.092 43.9742 134.321 44.4218C133.55 44.857 132.661 45.0746 131.654 45.0746ZM131.654 43.3961C132.301 43.3961 132.873 43.2469 133.37 42.9484C133.868 42.65 134.253 42.2397 134.527 41.7175C134.812 41.1953 134.955 40.5923 134.955 39.9084C134.955 39.2246 134.812 38.6215 134.527 38.0993C134.253 37.5647 133.868 37.1481 133.37 36.8497C132.873 36.5513 132.301 36.4021 131.654 36.4021C131.008 36.4021 130.436 36.5513 129.938 36.8497C129.441 37.1481 129.049 37.5647 128.764 38.0993C128.478 38.6215 128.335 39.2246 128.335 39.9084C128.335 40.5923 128.478 41.1953 128.764 41.7175C129.049 42.2397 129.441 42.65 129.938 42.9484C130.436 43.2469 131.008 43.3961 131.654 43.3961ZM142.039 45C141.492 45 141.007 44.8508 140.584 44.5524C140.162 44.254 139.832 43.8499 139.596 43.3401C139.36 42.8179 139.241 42.2211 139.241 41.5497V31.3665C139.241 31.0929 139.328 30.8691 139.503 30.6951C139.677 30.521 139.9 30.434 140.174 30.434C140.448 30.434 140.671 30.521 140.845 30.6951C141.019 30.8691 141.107 31.0929 141.107 31.3665V41.5497C141.107 42.0097 141.194 42.3889 141.368 42.6873C141.542 42.9857 141.765 43.1349 142.039 43.1349H142.505C142.754 43.1349 142.953 43.222 143.102 43.3961C143.264 43.5701 143.345 43.7939 143.345 44.0675C143.345 44.341 143.226 44.5648 142.99 44.7389C142.754 44.913 142.449 45 142.076 45H142.039ZM149.267 45.0746C148.26 45.0746 147.371 44.857 146.6 44.4218C145.829 43.9742 145.22 43.365 144.772 42.5941C144.337 41.8108 144.119 40.9155 144.119 39.9084C144.119 38.8889 144.337 37.9936 144.772 37.2227C145.22 36.4394 145.829 35.8302 146.6 35.395C147.371 34.9474 148.26 34.7236 149.267 34.7236C150.261 34.7236 151.144 34.9474 151.915 35.395C152.686 35.8302 153.289 36.4394 153.724 37.2227C154.172 37.9936 154.396 38.8889 154.396 39.9084C154.396 40.9155 154.178 41.8108 153.743 42.5941C153.308 43.365 152.705 43.9742 151.934 44.4218C151.163 44.857 150.274 45.0746 149.267 45.0746ZM149.267 43.3961C149.913 43.3961 150.485 43.2469 150.983 42.9484C151.48 42.65 151.865 42.2397 152.139 41.7175C152.425 41.1953 152.568 40.5923 152.568 39.9084C152.568 39.2246 152.425 38.6215 152.139 38.0993C151.865 37.5647 151.48 37.1481 150.983 36.8497C150.485 36.5513 149.913 36.4021 149.267 36.4021C148.62 36.4021 148.048 36.5513 147.551 36.8497C147.053 37.1481 146.662 37.5647 146.376 38.0993C146.09 38.6215 145.947 39.2246 145.947 39.9084C145.947 40.5923 146.09 41.1953 146.376 41.7175C146.662 42.2397 147.053 42.65 147.551 42.9484C148.048 43.2469 148.62 43.3961 149.267 43.3961ZM161.479 45.0746C160.547 45.0746 159.72 44.857 158.999 44.4218C158.29 43.9742 157.73 43.365 157.32 42.5941C156.91 41.8108 156.705 40.9155 156.705 39.9084C156.705 38.8889 156.922 37.9936 157.357 37.2227C157.805 36.4394 158.414 35.8302 159.185 35.395C159.956 34.9474 160.845 34.7236 161.852 34.7236C162.847 34.7236 163.73 34.9474 164.501 35.395C165.271 35.8302 165.874 36.4394 166.31 37.2227C166.757 37.9936 166.981 38.8889 166.981 39.9084H165.881C165.881 40.9155 165.688 41.8108 165.302 42.5941C164.929 43.365 164.413 43.9742 163.754 44.4218C163.096 44.857 162.337 45.0746 161.479 45.0746ZM161.815 49.2337C160.932 49.2337 160.105 49.0596 159.334 48.7115C158.563 48.3633 157.911 47.8535 157.376 47.1821C157.214 46.9707 157.152 46.7531 157.19 46.5293C157.239 46.3055 157.364 46.1252 157.563 45.9885C157.786 45.8393 158.016 45.7895 158.253 45.8393C158.501 45.889 158.7 46.0133 158.849 46.2123C159.185 46.635 159.608 46.9645 160.118 47.2008C160.627 47.437 161.206 47.5551 161.852 47.5551C162.449 47.5551 162.996 47.4121 163.493 47.1262C164.003 46.8402 164.407 46.4174 164.706 45.8579C165.004 45.2984 165.153 44.6146 165.153 43.8064V41.158L165.769 39.5168L166.981 39.9084V43.9369C166.981 44.9192 166.763 45.8082 166.328 46.6039C165.893 47.4121 165.284 48.0525 164.501 48.5249C163.73 48.9974 162.834 49.2337 161.815 49.2337ZM161.852 43.3961C162.499 43.3961 163.071 43.2469 163.568 42.9484C164.065 42.65 164.451 42.2397 164.724 41.7175C165.01 41.1953 165.153 40.5923 165.153 39.9084C165.153 39.2246 165.01 38.6215 164.724 38.0993C164.451 37.5647 164.065 37.1481 163.568 36.8497C163.071 36.5513 162.499 36.4021 161.852 36.4021C161.206 36.4021 160.634 36.5513 160.136 36.8497C159.639 37.1481 159.247 37.5647 158.961 38.0993C158.675 38.6215 158.532 39.2246 158.532 39.9084C158.532 40.5923 158.675 41.1953 158.961 41.7175C159.247 42.2397 159.639 42.65 160.136 42.9484C160.634 43.2469 161.206 43.3961 161.852 43.3961ZM170.95 45C170.676 45 170.446 44.913 170.26 44.7389C170.086 44.5524 169.999 44.3224 169.999 44.0488V35.7493C169.999 35.4634 170.086 35.2334 170.26 35.0593C170.446 34.8852 170.676 34.7982 170.95 34.7982C171.236 34.7982 171.466 34.8852 171.64 35.0593C171.814 35.2334 171.901 35.4634 171.901 35.7493V44.0488C171.901 44.3224 171.814 44.5524 171.64 44.7389C171.466 44.913 171.236 45 170.95 45ZM170.95 33.1383C170.614 33.1383 170.322 33.0202 170.073 32.7839C169.837 32.5352 169.719 32.2431 169.719 31.9073C169.719 31.5716 169.837 31.2857 170.073 31.0494C170.322 30.8007 170.614 30.6764 170.95 30.6764C171.286 30.6764 171.572 30.8007 171.808 31.0494C172.057 31.2857 172.181 31.5716 172.181 31.9073C172.181 32.2431 172.057 32.5352 171.808 32.7839C171.572 33.0202 171.286 33.1383 170.95 33.1383ZM180.233 45.0746C179.201 45.0746 178.281 44.857 177.473 44.4218C176.677 43.9742 176.049 43.365 175.589 42.5941C175.142 41.8108 174.918 40.9155 174.918 39.9084C174.918 38.8889 175.129 37.9936 175.552 37.2227C175.987 36.4394 176.584 35.8302 177.343 35.395C178.101 34.9474 178.971 34.7236 179.954 34.7236C180.923 34.7236 181.757 34.9412 182.453 35.3763C183.149 35.7991 183.678 36.3897 184.038 37.1481C184.411 37.8942 184.598 38.7583 184.598 39.7406C184.598 39.9768 184.517 40.1757 184.355 40.3374C184.193 40.4866 183.988 40.5612 183.74 40.5612H176.224V39.0691H183.684L182.919 39.5914C182.907 38.9697 182.782 38.4164 182.546 37.9315C182.31 37.4341 181.974 37.0425 181.539 36.7565C181.104 36.4705 180.575 36.3275 179.954 36.3275C179.245 36.3275 178.636 36.4829 178.126 36.7938C177.629 37.1046 177.249 37.5336 176.988 38.0807C176.727 38.6153 176.597 39.2246 176.597 39.9084C176.597 40.5923 176.752 41.2015 177.063 41.7362C177.374 42.2708 177.803 42.6936 178.35 43.0044C178.897 43.3152 179.525 43.4707 180.233 43.4707C180.619 43.4707 181.01 43.4023 181.408 43.2655C181.819 43.1163 182.148 42.9484 182.397 42.7619C182.583 42.6252 182.782 42.5568 182.994 42.5568C183.217 42.5444 183.41 42.6065 183.572 42.7433C183.783 42.9298 183.895 43.1349 183.908 43.3588C183.92 43.5826 183.82 43.7753 183.609 43.9369C183.186 44.2726 182.658 44.5462 182.024 44.7575C181.402 44.9689 180.805 45.0746 180.233 45.0746ZM190.735 45.0746C189.865 45.0746 189.057 44.944 188.311 44.6829C187.577 44.4094 187.005 44.0675 186.595 43.6572C186.408 43.4582 186.328 43.2344 186.352 42.9857C186.39 42.7246 186.514 42.5133 186.725 42.3516C186.974 42.1527 187.217 42.0719 187.453 42.1092C187.702 42.134 187.913 42.2397 188.087 42.4262C188.298 42.6625 188.634 42.8863 189.094 43.0976C189.567 43.2966 190.089 43.3961 190.661 43.3961C191.382 43.3961 191.929 43.2779 192.302 43.0417C192.687 42.8055 192.886 42.5008 192.899 42.1278C192.911 41.7548 192.731 41.4315 192.358 41.158C191.997 40.8845 191.332 40.6606 190.362 40.4866C189.107 40.2379 188.193 39.8649 187.621 39.3675C187.061 38.8702 186.781 38.261 186.781 37.5398C186.781 36.9057 186.968 36.3835 187.341 35.9732C187.714 35.5504 188.193 35.2396 188.777 35.0406C189.361 34.8293 189.971 34.7236 190.605 34.7236C191.425 34.7236 192.153 34.8541 192.787 35.1152C193.421 35.3763 193.925 35.7369 194.298 36.197C194.472 36.3959 194.552 36.6073 194.54 36.8311C194.528 37.0425 194.422 37.2227 194.223 37.3719C194.024 37.5087 193.788 37.5522 193.514 37.5025C193.241 37.4528 193.011 37.3409 192.824 37.1668C192.513 36.8684 192.178 36.6632 191.817 36.5513C191.457 36.4394 191.04 36.3835 190.568 36.3835C190.02 36.3835 189.554 36.4767 189.169 36.6632C188.796 36.8497 188.609 37.1233 188.609 37.4838C188.609 37.7077 188.665 37.9128 188.777 38.0993C188.901 38.2734 189.138 38.435 189.486 38.5842C189.834 38.721 190.344 38.8578 191.015 38.9945C191.948 39.181 192.681 39.4173 193.216 39.7033C193.763 39.9892 194.155 40.3249 194.391 40.7104C194.627 41.0834 194.745 41.5186 194.745 42.0159C194.745 42.5879 194.59 43.1039 194.279 43.5639C193.981 44.024 193.533 44.3908 192.936 44.6643C192.352 44.9378 191.618 45.0746 190.735 45.0746Z" fill="white"/>
</svg>
