<svg width="49" height="51" viewBox="0 0 49 51" fill="none" xmlns="http://www.w3.org/2000/svg">
<path fill-rule="evenodd" clip-rule="evenodd" d="M2.55207 36.154C8.29755 46.3809 20.7978 51.1712 32.12 46.9218C44.6236 42.2291 50.9555 28.2887 46.2628 15.785C46.2613 15.7811 46.2599 15.7772 46.2584 15.7733L33.5061 21.7198C34.9348 26.625 32.3607 31.878 27.4986 33.7028C23.1269 35.3436 18.3244 33.6802 15.8363 29.9594L2.55207 36.154Z" fill="white"/>
<path fill-rule="evenodd" clip-rule="evenodd" d="M20.1453 0C19.6169 0.068243 19.0885 0.136486 18.5601 0.272981L21.0039 14.7409C21.5323 14.6045 22.0608 14.5362 22.5892 14.468L20.1453 0ZM19.6169 15.2869C19.0224 15.5599 18.4941 15.8329 17.9656 16.2424L10.8983 3.4805C11.1625 3.30987 11.4432 3.15631 11.724 3.00275C12.0046 2.84921 12.2853 2.69567 12.5495 2.52507L19.6169 15.2869ZM14.0687 22.6574C14.0027 23.1351 13.9366 23.6811 13.9366 24.227C13.9366 24.6508 13.9886 25.0209 14.0464 25.4326C14.0538 25.485 14.0612 25.538 14.0687 25.5919H0.0660679C0 25.1142 0 24.6365 0 24.1588C0 23.6128 0 23.1351 0.0660679 22.6574H14.0687ZM15.1037 28.9087C14.6088 27.9746 14.2539 26.9496 14.0687 25.8649L0.858645 30.8468C1.12284 31.9387 1.51917 32.9624 1.91546 33.9178L14.9934 28.936L14.9132 29.0069L15.1037 28.9087ZM15.1255 19.5181C14.7292 20.2688 14.3989 21.0878 14.2008 21.9749L1.05682 16.993C1.32101 16.1741 1.5852 15.3551 1.91546 14.5362L15.1255 19.5181ZM30.3831 17.4707L41.1492 8.12115C41.4134 8.39415 41.6776 8.73536 41.8758 9.00836L31.1096 18.3579C30.9114 18.0849 30.6473 17.7437 30.3831 17.4707ZM35.0545 2.95347C35.2911 3.09035 35.5452 3.23728 35.7992 3.41226L28.7979 16.0376C28.4018 15.7648 28.0057 15.5601 27.6097 15.3555L27.609 15.3551L34.6763 2.7298C34.7949 2.80331 34.922 2.87682 35.0545 2.95347ZM6.2087 7.57521L17.0409 16.993C16.4465 17.539 15.9841 18.0849 15.5218 18.7674L4.7556 9.34958C5.21796 8.73536 5.68032 8.12115 6.2087 7.57521ZM25.8256 14.7409C25.3633 14.6045 24.9009 14.5362 24.4385 14.468L26.8824 0C27.1136 0.0341214 27.3447 0.0853033 27.5759 0.136486C27.8071 0.187678 28.0383 0.23886 28.2695 0.272981L25.8256 14.7409Z" fill="white"/>
<path d="M44.5692 12.5233L32.3938 19.813L32.8743 20.6156L45.0498 13.3259L44.5692 12.5233Z" fill="white"/>
</svg>
