<svg width="106" height="106" viewBox="0 0 106 106" fill="none" xmlns="http://www.w3.org/2000/svg">
<g clip-path="url(#clip0_55_2635)">
<path opacity="0.0344828" d="M12.5084 61.5828C1.18361 57.0238 2.92263 40.4781 14.9478 38.3733C21.93 37.1512 26.6829 30.6094 25.6876 23.5912C23.9734 11.5042 39.1719 4.73743 47.0073 14.0991C51.5568 19.5348 59.5986 20.3801 65.1789 16.009C74.7894 8.48099 88.2489 18.2599 84.0591 29.7263C81.6264 36.3842 84.9153 43.7713 91.4909 46.4183C102.816 50.9773 101.077 67.523 89.0515 69.6278C82.0692 70.8499 77.3163 77.3917 78.3116 84.4099C80.0258 96.4969 64.8274 103.264 56.992 93.902C52.4425 88.4663 44.4006 87.621 38.8204 91.9921C29.2098 99.5201 15.7504 89.7413 19.9401 78.2748C22.3729 71.617 19.0839 64.2299 12.5084 61.5828Z" stroke="#521461"/>
<path opacity="0.0689655" d="M12.6581 59.4322C1.72921 54.3527 4.29846 38.1311 16.2621 36.6774C23.2155 35.8325 28.2441 29.6227 27.6249 22.6455C26.5594 10.6411 41.8924 4.7553 49.1332 14.3893C53.3416 19.9886 61.2338 21.2386 66.9665 17.2138C76.83 10.2889 89.5937 20.6247 84.8708 31.7124C82.1258 38.1567 84.9894 45.6165 91.3413 48.5688C102.27 53.6483 99.701 69.8699 87.7373 71.3236C80.7839 72.1685 75.7553 78.3783 76.3746 85.3555C77.44 97.3599 62.107 103.246 54.8662 93.6117C50.6578 88.0124 42.7657 86.7624 37.0329 90.7872C27.1695 97.7122 14.4058 87.3763 19.1287 76.2886C21.8736 69.8443 19.0101 62.3845 12.6581 59.4322Z" stroke="#521461"/>
<path opacity="0.103448" d="M12.9232 57.3183C2.41321 51.747 5.78364 35.8904 17.6511 35.0755C24.5555 34.6014 29.8383 28.7343 29.588 21.8181C29.158 9.93055 44.5754 4.92111 51.2148 14.7912C55.0776 20.5336 62.8 22.175 68.6645 18.5002C78.7444 12.184 90.7914 23.0311 85.5634 33.7161C82.5218 39.9325 84.9614 47.4411 91.0761 50.6825C101.586 56.2538 98.2157 72.1104 86.3483 72.9253C79.4438 73.3994 74.1611 79.2664 74.4113 86.1826C74.8414 98.0702 59.424 103.08 52.7845 93.2096C48.9217 87.4672 41.1993 85.8258 35.3349 89.5006C25.2549 95.8168 13.2079 84.9696 18.4359 74.2847C21.4776 68.0682 19.0379 60.5597 12.9232 57.3183Z" stroke="#521461"/>
<path opacity="0.137931" d="M13.3003 55.2473C3.23038 49.2139 7.37094 33.7611 19.1085 33.571C25.9445 33.4603 31.4594 27.9453 31.5701 21.1094C31.7603 9.3718 47.213 5.23124 53.2465 15.3012C56.7604 21.166 64.2939 23.1846 70.2694 19.8625C80.5295 14.1584 91.8417 25.4706 86.1376 35.7306C82.8155 41.7061 84.8341 49.2397 90.6988 52.7536C100.769 58.787 96.6282 74.2398 84.8907 74.4299C78.0547 74.5406 72.5398 80.0556 72.429 86.8915C72.2389 98.6291 56.7861 102.77 50.7527 92.6997C47.2388 86.8349 39.7053 84.8163 33.7298 88.1384C23.4697 93.8425 12.1575 82.5303 17.8616 72.2702C21.1837 66.2947 19.1651 58.7612 13.3003 55.2473Z" stroke="#521461"/>
<path opacity="0.172414" d="M13.7858 53.2249C4.17509 46.7599 9.05289 31.7476 20.6281 32.1664C27.3768 32.4105 33.1017 27.2558 33.5643 20.5186C34.3577 8.96301 49.7977 5.68114 55.2227 15.915C58.3855 21.8815 65.7121 24.2621 71.778 21.2941C82.1822 16.2035 92.7443 27.934 86.594 37.749C83.0083 43.4714 84.61 51.0067 90.2132 54.7759C99.8239 61.2409 94.9461 76.2532 83.3709 75.8344C76.6223 75.5903 70.8973 80.745 70.4347 87.4822C69.6413 99.0378 54.2013 102.32 48.7764 92.0858C45.6135 86.1193 38.2869 83.7387 32.221 86.7067C21.8169 91.7973 11.2547 80.0669 17.405 70.2518C20.9907 64.5294 19.3891 56.9941 13.7858 53.2249Z" stroke="#521461"/>
<path opacity="0.206897" d="M14.3758 51.2568C5.2415 44.3916 10.822 29.854 22.2038 30.8642C28.8469 31.4538 34.7594 26.6659 35.5638 20.0454C36.9421 8.70228 52.3223 6.2663 57.1384 16.6283C59.9493 22.6762 67.052 25.4027 73.1878 22.7891C83.7003 18.3112 93.5001 30.4128 86.9343 39.7647C83.1022 45.2229 84.2923 52.7373 89.6236 56.7442C98.7579 63.6094 93.1774 78.1471 81.7956 77.1369C75.1525 76.5473 69.24 81.3351 68.4355 87.9557C67.0572 99.2988 51.677 101.735 46.861 91.3727C44.05 85.3248 36.9474 82.5984 30.8116 85.2119C20.299 89.6898 10.4993 77.5882 17.0651 68.2364C20.8972 62.7781 19.7071 55.2637 14.3758 51.2568Z" stroke="#521461"/>
<path opacity="0.241379" d="M15.0652 49.3481C6.42264 42.1145 12.6697 28.0835 23.8283 29.666C30.3484 30.5907 36.426 26.175 37.5614 19.6883C39.5045 8.58679 54.7793 6.98135 58.9881 17.4362C61.4474 23.5452 68.3103 26.6007 74.4957 24.3406C85.0814 20.4727 94.1091 32.8983 87.1593 41.7707C83.0984 46.9549 83.8837 54.4261 88.9337 58.6528C97.5763 65.8863 91.3293 79.9174 80.1707 78.3349C73.6506 77.4102 67.5729 81.8258 66.4375 88.3126C64.4944 99.4141 49.2196 101.02 45.0108 90.5646C42.5516 84.4557 35.6887 81.4001 29.5033 83.6602C18.9176 87.5282 9.88982 75.1025 16.8396 66.2302C20.9005 61.0459 20.1153 53.5747 15.0652 49.3481Z" stroke="#521461"/>
<path opacity="0.275862" d="M15.8504 47.504C7.71265 39.9345 14.5888 26.4394 25.4959 28.5737C31.8764 29.8223 38.0966 25.7829 39.5512 19.4461C42.0377 8.61388 57.1628 7.8212 60.768 18.3342C62.877 24.4842 69.4853 27.8513 75.7004 25.9426C86.3246 22.6799 94.5737 35.3823 87.2718 43.761C83.0002 48.6624 83.3884 56.069 88.1489 60.497C96.2866 68.0665 89.4105 81.5617 78.5034 79.4273C72.1229 78.1788 65.9027 82.2182 64.4481 88.5549C61.9616 99.3872 46.8364 100.18 43.2313 89.6669C41.1223 83.5169 34.5139 80.1498 28.2989 82.0584C17.6746 85.3212 9.42555 72.6187 16.7275 64.2401C20.9991 59.3387 20.6109 51.9321 15.8504 47.504Z" stroke="#521461"/>
<path opacity="0.310345" d="M16.7258 45.7287C9.10407 37.856 16.5706 24.9236 27.1994 27.5879C33.4245 29.1483 39.7648 25.4877 41.526 19.3164C44.5331 8.77943 59.4661 8.77943 62.4732 19.3164C64.2344 25.4877 70.5747 29.1483 76.7998 27.5879C87.4286 24.9236 94.8951 37.856 87.2734 45.7287C82.8095 50.3396 82.8095 57.6607 87.2734 62.2716C94.8951 70.1443 87.4286 83.0767 76.7998 80.4124C70.5747 78.852 64.2344 82.5126 62.4732 88.6839C59.4661 99.2209 44.5331 99.2209 41.526 88.6839C39.7648 82.5126 33.4245 78.852 27.1994 80.4124C16.5706 83.0767 9.10406 70.1443 16.7258 62.2716C21.1897 57.6607 21.1897 50.3396 16.7258 45.7287Z" stroke="#521461"/>
<path opacity="0.344828" d="M17.6867 44.0273C10.5901 35.8843 18.6072 23.539 28.9326 26.71C34.9874 28.5695 41.4254 25.2892 43.4799 19.2978C46.9837 9.08048 61.6835 9.85086 64.1001 20.3785C65.5172 26.5518 71.5769 30.4871 77.7929 29.2707C88.3933 27.1964 95.076 40.312 87.1671 47.6686C82.5294 51.9825 82.1512 59.198 86.3126 63.973C93.4092 72.1161 85.3922 84.4613 75.0667 81.2903C69.0119 79.4308 62.574 82.7111 60.5194 88.7025C57.0156 98.9198 42.3158 98.1495 39.8992 87.6218C38.4822 81.4485 32.4224 77.5133 26.2064 78.7296C15.6061 80.8039 8.92332 67.6883 16.8322 60.3317C21.4699 56.0178 21.8481 48.8023 17.6867 44.0273Z" stroke="#521461"/>
<path opacity="0.37931" d="M18.7275 42.4035C12.1632 34.0232 20.6902 22.2868 30.6887 25.9402C36.5592 28.0852 43.0726 25.1853 45.4066 19.3874C49.3819 9.51242 63.8095 11.0288 65.6448 21.5145C66.7224 27.671 72.4906 31.8618 78.6787 30.9842C89.2183 29.4894 95.1189 42.7422 86.9556 49.5746C82.1628 53.586 81.4175 60.6767 85.2716 65.597C91.8359 73.9772 83.3089 85.7137 73.3104 82.0603C67.4399 79.9152 60.9265 82.8152 58.5925 88.6131C54.6172 98.4881 40.1896 96.9717 38.3543 86.4859C37.2767 80.3295 31.5085 76.1387 25.3204 77.0163C14.7808 78.5111 8.88024 65.2582 17.0435 58.4259C21.8363 54.4145 22.5816 47.3237 18.7275 42.4035Z" stroke="#521461"/>
<path opacity="0.413793" d="M19.8431 40.8609C13.8161 32.2765 22.8117 21.1679 32.4615 25.2784C38.1345 27.6948 44.7015 25.174 47.3004 19.5823C51.7213 10.0706 65.8393 12.3067 67.1045 22.7189C67.8483 28.8401 73.3149 33.2669 79.4569 32.7217C89.9047 31.7944 95.0272 45.1391 86.6426 51.4409C81.7134 55.1456 80.613 62.0932 84.1561 67.1398C90.183 75.7242 81.1875 86.8328 71.5376 82.7223C65.8646 80.3059 59.2977 82.8267 56.6987 88.4184C52.2779 97.9301 38.1598 95.694 36.8947 85.2818C36.1509 79.1606 30.6843 74.7338 24.5422 75.279C14.0945 76.2063 8.97193 62.8616 17.3566 56.5598C22.2858 52.8551 23.3862 45.9075 19.8431 40.8609Z" stroke="#521461"/>
<path opacity="0.448276" d="M21.0277 39.4025C15.5413 30.6469 24.9633 20.1827 34.2445 24.7238C39.7079 27.397 46.3069 25.2529 49.1556 19.8789C53.995 10.7497 67.7684 13.6773 68.4762 23.9856C68.8929 30.0537 74.0492 34.6965 80.1276 34.4766C90.4534 34.103 94.8047 47.4949 86.2314 53.262C81.1846 56.6569 79.742 63.4438 82.9716 68.5979C88.458 77.3535 79.036 87.8178 69.7548 83.2766C64.2914 80.6034 57.6924 82.7476 54.8437 88.1216C50.0043 97.2508 36.2309 94.3232 35.5231 84.0149C35.1065 77.9468 29.9501 73.304 23.8717 73.5239C13.5459 73.8975 9.19462 60.5056 17.768 54.7384C22.8147 51.3436 24.2573 44.5566 21.0277 39.4025Z" stroke="#521461"/>
<path opacity="0.482759" d="M22.2754 38.0315C17.3307 29.1373 27.1369 19.3311 36.0311 24.2759C41.2739 27.1906 47.8836 25.4195 50.9666 20.2739C56.1968 11.5445 69.5924 15.1339 69.7572 25.3088C69.8544 31.3066 74.693 36.1452 80.6908 36.2424C90.8657 36.4072 94.455 49.8027 85.7257 55.033C80.5801 58.116 78.809 64.7257 81.7237 69.9685C86.6685 78.8627 76.8622 88.6689 67.9681 83.7241C62.7253 80.8094 56.1155 82.5805 53.0325 87.7261C47.8023 96.4555 34.4068 92.8661 34.242 82.6912C34.1448 76.6934 29.3061 71.8548 23.3084 71.7576C13.1334 71.5928 9.54412 58.1973 18.2735 52.967C23.4191 49.884 25.1902 43.2743 22.2754 38.0315Z" stroke="#521461"/>
<path opacity="0.517241" d="M23.5807 36.751C19.1769 27.7506 29.3246 18.6136 37.8154 23.934C42.8274 27.0746 49.4272 25.6718 52.7285 20.7641C58.3212 12.4501 71.3079 16.6698 70.9457 26.6832C70.7318 32.5941 75.2466 37.6083 81.1474 38.0134C91.1439 38.6999 93.9829 52.0566 85.1299 56.7496C79.9041 59.5198 77.8191 65.9368 80.4186 71.2497C84.8223 80.25 74.6746 89.3871 66.1839 84.0666C61.1719 80.926 54.572 82.3289 51.2707 87.2365C45.6781 95.5505 32.6913 91.3308 33.0535 81.3174C33.2674 75.4066 28.7526 70.3924 22.8518 69.9872C12.8553 69.3008 10.0163 55.9441 18.8693 51.2511C24.0951 48.4809 26.1802 42.0638 23.5807 36.751Z" stroke="#521461"/>
<path opacity="0.551724" d="M24.9375 35.5619C21.072 26.4872 31.5185 18.0278 39.5913 23.6955C44.3634 27.046 50.9332 26.0054 54.4364 21.3443C60.3627 13.4593 72.912 18.2765 72.04 28.1016C71.5245 33.9097 75.7105 39.079 81.4988 39.7823C91.2905 40.9721 93.3933 54.2487 84.4485 58.4061C79.1608 60.8637 76.7771 67.0735 79.0621 72.438C82.9276 81.5127 72.4811 89.9721 64.4083 84.3044C59.6362 80.954 53.0664 81.9945 49.5632 86.6556C43.6369 94.5406 31.0876 89.7234 31.9597 79.8983C32.4751 74.0902 28.2891 68.9209 22.5008 68.2176C12.7092 67.0278 10.6063 53.7512 19.5511 49.5938C24.8388 47.1363 27.2225 40.9264 24.9375 35.5619Z" stroke="#521461"/>
<path opacity="0.586207" d="M26.3395 34.4673C23.0079 25.3494 33.7105 17.5735 41.3526 23.5596C45.8768 27.1035 52.3969 26.4182 56.0855 22.0111C62.316 14.567 74.4014 19.9478 73.0383 29.559C72.2313 35.2491 76.0849 40.553 81.7458 41.5439C91.3079 43.2176 92.6907 56.3742 83.6856 59.9994C78.3543 62.1456 75.6878 68.1348 77.6601 73.5327C80.9917 82.6506 70.2891 90.4265 62.6471 84.4404C58.1228 80.8965 51.6027 81.5817 47.9141 85.9889C41.6837 93.433 29.5982 88.0522 30.9613 78.441C31.7683 72.7509 27.9148 67.447 22.2538 66.4561C12.6918 64.7824 11.3089 51.6258 20.3141 48.0006C25.6453 45.8544 28.3119 39.8652 26.3395 34.4673Z" stroke="#521461"/>
<path opacity="0.62069" d="M27.7807 33.468C24.9768 24.3377 35.8931 17.2486 43.0935 23.5238C47.3629 27.2445 53.8144 26.9064 57.6715 22.7598C64.1766 15.7663 75.7741 21.6756 73.9399 31.0489C72.8523 36.6067 76.3709 42.0248 81.8905 43.2918C91.1996 45.4287 91.8808 58.427 82.8461 61.5252C77.4891 63.3622 74.5562 69.1185 76.2187 74.5321C79.0227 83.6624 68.1064 90.7515 60.9059 84.4764C56.6366 80.7556 50.185 81.0937 46.3279 85.2404C39.8229 92.2338 28.2254 86.3246 30.0596 76.9512C31.1472 71.3935 27.6286 65.9753 22.109 64.7083C12.7999 62.5715 12.1187 49.5731 21.1534 46.4749C26.5103 44.6379 29.4433 38.8817 27.7807 33.468Z" stroke="#521461"/>
<path opacity="0.655172" d="M29.2553 32.565C26.9711 23.4521 38.0589 17.0505 44.8088 23.5852C48.8174 27.466 55.1822 27.466 59.1907 23.5852C65.9406 17.0505 77.0285 23.4521 74.7443 32.565C73.3877 37.9769 76.5701 43.489 81.9352 45.0201C90.9694 47.5983 90.9694 60.4015 81.9352 62.9797C76.5701 64.5109 73.3877 70.0229 74.7442 75.4348C77.0285 84.5478 65.9406 90.9494 59.1907 84.4147C55.1822 80.5339 48.8174 80.5339 44.8088 84.4147C38.0589 90.9494 26.9711 84.5478 29.2553 75.4348C30.6119 70.0229 27.4295 64.5109 22.0644 62.9797C13.0302 60.4015 13.0302 47.5983 22.0644 45.0201C27.4295 43.489 30.6119 37.9769 29.2553 32.565Z" stroke="#521461"/>
<path opacity="0.689655" d="M30.757 31.7574C28.9828 22.6908 40.2007 16.975 46.4929 23.7396C50.2358 27.7634 56.4963 28.0915 60.6393 24.4809C67.6041 18.4111 78.1632 25.2682 75.451 34.0997C73.8376 39.3531 76.6838 44.9389 81.8821 46.7216C90.6211 49.7184 89.9622 62.2913 80.9578 64.3583C75.6016 65.5877 72.1872 70.8455 73.2426 76.2387C75.0168 85.3053 63.7988 91.0211 57.5066 84.2566C53.7637 80.2327 47.5032 79.9046 43.3602 83.5152C36.3954 89.585 25.8364 82.7279 28.5486 73.8964C30.1619 68.643 27.3158 63.0572 22.1174 61.2746C13.3784 58.2777 14.0373 45.7048 23.0417 43.6379C28.3979 42.4084 31.8123 37.1507 30.757 31.7574Z" stroke="#521461"/>
<path opacity="0.724138" d="M32.2796 31.0492C31.0043 22.0568 42.3114 17.0226 48.1407 23.9873C51.614 28.1373 57.7537 28.7826 62.014 25.4455C69.1639 19.8449 79.1773 27.12 76.0602 35.6507C74.2029 40.7337 76.7139 46.3734 81.7341 48.3944C90.1593 51.7861 88.8655 64.0955 79.9192 65.6614C74.5886 66.5944 70.9599 71.5889 71.7198 76.9469C72.9951 85.9393 61.688 90.9735 55.8587 84.0088C52.3854 79.8588 46.2457 79.2135 41.9854 82.5506C34.8355 88.1512 24.8221 80.8761 27.9392 72.3454C29.7965 67.2624 27.2855 61.6227 22.2653 59.6017C13.8401 56.21 15.1339 43.9006 24.0801 42.3347C29.4108 41.4017 33.0395 36.4072 32.2796 31.0492Z" stroke="#521461"/>
<path opacity="0.758621" d="M33.8173 30.4384C33.0282 21.5474 44.3845 17.1881 49.7473 24.3235C52.9484 28.5825 58.9514 29.5333 63.3118 26.4719C70.6172 21.3429 80.0706 28.9981 76.5726 37.2102C74.4847 42.1119 76.6628 47.786 81.4943 50.0316C89.5887 53.7938 87.6858 65.8082 78.825 66.8849C73.536 67.5276 69.7111 72.2509 70.1821 77.5579C70.9712 86.449 59.6149 90.8083 54.2521 83.6729C51.0511 79.4139 45.0481 78.4631 40.6876 81.5245C33.3822 86.6534 23.9288 78.9982 27.4268 70.7862C29.5148 65.8845 27.3366 60.2103 22.5052 57.9647C14.4107 54.2026 16.3136 42.1881 25.1745 41.1114C30.4634 40.4688 34.2883 35.7454 33.8173 30.4384Z" stroke="#521461"/>
<path opacity="0.793103" d="M35.3641 29.9245C35.0471 21.1605 46.4134 17.4673 51.3082 24.7439C54.2352 29.0951 60.0867 30.3388 64.5304 27.5544C71.9617 22.8978 80.8432 30.8947 76.9889 38.7721C74.6841 43.4825 76.5328 49.1719 81.166 51.628C88.9144 55.7354 86.4296 67.4255 77.6805 68.0263C72.4488 68.3855 68.4459 72.8311 68.6355 78.0717C68.9526 86.8357 57.5862 90.5289 52.6914 83.2523C49.7644 78.9011 43.913 77.6573 39.4693 80.4418C32.038 85.0984 23.1564 77.1015 27.0107 69.2241C29.3155 64.5137 27.4669 58.8243 22.8336 56.3682C15.0852 52.2608 17.57 40.5707 26.3192 39.9699C31.5509 39.6107 35.5537 35.1651 35.3641 29.9245Z" stroke="#521461"/>
<path opacity="0.827586" d="M36.914 29.5068C37.0535 20.8945 48.3918 17.8564 52.8188 25.2451C55.4709 29.6716 61.1569 31.1951 65.6669 28.6878C73.1952 24.5024 81.4954 32.8026 77.3101 40.3309C74.8027 44.8409 76.3263 50.5269 80.7527 53.179C88.1415 57.606 85.1034 68.9443 76.491 69.0838C71.3315 69.1674 67.1691 73.3299 67.0855 78.4894C66.946 87.1017 55.6077 90.1398 51.1807 82.751C48.5286 78.3246 42.8426 76.801 38.3326 79.3084C30.8043 83.4937 22.5041 75.1935 26.6894 67.6653C29.1968 63.1552 27.6733 57.4692 23.2468 54.8171C15.8581 50.3901 18.8961 39.0518 27.5085 38.9123C32.668 38.8287 36.8304 34.6663 36.914 29.5068Z" stroke="#521461"/>
<path opacity="0.862069" d="M38.4613 29.1842C39.0407 20.7469 50.3141 18.3506 54.2751 25.8229C56.6527 30.308 62.1602 32.0975 66.72 29.8664C74.3166 26.1495 82.0285 34.7145 77.5379 41.8809C74.8425 46.1826 76.0465 51.8469 80.2585 54.6803C87.2757 59.4007 83.7142 70.3619 75.2626 70.0561C70.1896 69.8726 65.8861 73.7475 65.5383 78.8119C64.959 87.2492 53.6855 89.6455 49.7245 82.1732C47.3469 77.6881 41.8394 75.8986 37.2796 78.1297C29.683 81.8466 21.9711 73.2816 26.4617 66.1152C29.1572 61.8136 27.9532 56.1492 23.7411 53.3158C16.7239 48.5954 20.2854 37.6342 28.737 37.94C33.8101 38.1235 38.1136 34.2486 38.4613 29.1842Z" stroke="#521461"/>
<path opacity="0.896552" d="M40.0004 28.9552C41.0016 20.715 52.1747 18.9453 55.6733 26.4729C57.7776 31.0003 63.0946 33.0413 67.6878 31.0848C75.3247 27.8318 82.4438 36.6231 77.6741 43.4168C74.8053 47.5029 75.6963 53.128 79.6872 56.1276C86.3229 61.1149 82.2689 71.6758 74.0005 70.942C69.0276 70.5006 64.6015 74.0848 63.9993 79.0408C62.998 87.2811 51.825 89.0507 48.3263 81.5232C46.2221 76.9958 40.905 74.9548 36.3119 76.9113C28.6749 80.1643 21.5559 71.3729 26.3256 64.5792C29.1943 60.4932 28.3034 54.868 24.3124 51.8685C17.6767 46.8812 21.7307 36.3202 29.9991 37.0541C34.9721 37.4955 39.3981 33.9113 40.0004 28.9552Z" stroke="#521461"/>
<path opacity="0.931035" d="M41.5254 28.8183C42.9297 20.7956 53.9682 19.6354 57.0097 27.1908C58.8428 31.7444 63.9584 34.022 68.5689 32.3373C76.2188 29.5421 82.7429 38.5216 77.7205 44.9334C74.6936 48.7977 75.2789 54.3666 79.0431 57.5171C85.2888 62.7446 80.7743 72.8843 72.7104 71.7407C67.8503 71.0514 63.3201 74.3428 62.4738 79.178C61.0696 87.2006 50.031 88.3608 46.9895 80.8055C45.1564 76.2519 40.0409 73.9743 35.4303 75.659C27.7804 78.4542 21.2564 69.4746 26.2787 63.0629C29.3057 59.1986 28.7204 53.6296 24.9561 50.4791C18.7104 45.2517 23.225 35.112 31.2889 36.2556C36.1489 36.9449 40.6791 33.6535 41.5254 28.8183Z" stroke="#521461"/>
<path opacity="0.965517" d="M43.0318 28.7709C44.819 20.9851 55.6904 20.4153 58.2817 27.9717C59.8468 32.5356 64.7509 35.0344 69.3631 33.618C76.9995 31.2728 82.9286 40.4029 77.6802 46.4252C74.5103 50.0625 74.7983 55.559 78.3311 58.8451C84.1802 64.2858 79.2379 73.9856 71.3983 72.4515C66.6633 71.525 62.0472 74.5227 60.9678 79.2252C59.1806 87.011 48.3091 87.5808 45.7179 80.0244C44.1528 75.4605 39.2486 72.9617 34.6364 74.3781C27.0001 76.7233 21.0709 67.5932 26.3193 61.5709C29.4893 57.9336 29.2012 52.4371 25.6684 49.151C19.8193 43.7103 24.7616 34.0105 32.6012 35.5446C37.3363 36.4711 41.9523 33.4734 43.0318 28.7709Z" stroke="#521461"/>
<path d="M44.5139 28.811C46.6633 21.2796 57.3367 21.2796 59.486 28.811C60.7871 33.37 65.4709 36.0742 70.0696 34.9214C77.6666 33.0171 83.0033 42.2606 77.5557 47.8876C74.258 51.2939 74.258 56.7023 77.5557 60.1085C83.0033 65.7356 77.6666 74.979 70.0696 73.0747C65.4709 71.922 60.7871 74.6262 59.486 79.1852C57.3367 86.7165 46.6633 86.7165 44.5139 79.1852C43.2129 74.6262 38.5291 71.922 33.9303 73.0747C26.3333 74.979 20.9966 65.7356 26.4443 60.1085C29.7419 56.7023 29.7419 51.2939 26.4443 47.8876C20.9966 42.2606 26.3333 33.0171 33.9303 34.9214C38.5291 36.0742 43.2129 33.37 44.5139 28.811Z" stroke="#521461"/>
</g>
<defs>
<clipPath id="clip0_55_2635">
<rect width="106" height="106" fill="white"/>
</clipPath>
</defs>
</svg>
