<svg width="106" height="107" viewBox="0 0 106 107" fill="none" xmlns="http://www.w3.org/2000/svg">
<path opacity="0.0526316" d="M8.23573 86.563C10.4723 89.6325 17.6207 94.7689 28.3216 90.7587C41.6977 85.7459 46.8709 72.4583 58.8093 65.5685C67.6207 60.4834 91.2972 52.8502 104.912 61.2849" stroke="url(#paint0_linear_55_2581)"/>
<path opacity="0.105263" d="M6.0296 80.1281C7.94291 83.422 14.5317 89.301 25.5803 86.4666C39.391 82.9235 45.8824 70.2666 58.4535 64.7018C67.7319 60.5946 92.0522 55.5562 104.737 65.4127" stroke="url(#paint1_linear_55_2581)"/>
<path opacity="0.157895" d="M4.363 73.6066C5.93206 77.0886 11.889 83.6459 23.1643 82.0183C37.2584 79.9839 44.9968 68.0962 58.0629 63.9174C67.7067 60.8331 92.4043 58.4447 104.021 69.615" stroke="url(#paint2_linear_55_2581)"/>
<path opacity="0.210526" d="M3.24164 67.0567C4.44926 70.6889 9.70911 77.8525 21.0876 77.4496C35.3106 76.946 44.2112 65.9579 57.6292 63.2108C67.5327 61.1833 92.337 61.471 102.758 73.8327" stroke="url(#paint3_linear_55_2581)"/>
<path opacity="0.263158" d="M2.66551 60.5376C3.49845 64.2802 8.00358 71.9717 19.3605 72.7979C33.5567 73.8307 43.522 63.8624 57.1448 62.5772C67.1995 61.6287 91.8388 64.5894 100.95 78.007" stroke="url(#paint4_linear_55_2581)"/>
<path opacity="0.315789" d="M2.62836 54.108C3.07751 57.9198 6.77855 66.055 17.9896 68.1013C32.0033 70.6591 42.9241 61.82 56.6026 62.0107C66.6983 62.1515 90.9026 67.7527 98.6046 82.0793" stroke="url(#paint5_linear_55_2581)"/>
<path opacity="0.368421" d="M3.11827 47.8253C3.1787 51.6647 6.03512 60.1544 16.9774 63.3982C30.6552 67.4531 42.4118 59.8399 55.996 61.5045C66.0221 62.7331 89.5263 70.9136 95.7344 85.9922" stroke="url(#paint6_linear_55_2581)"/>
<path opacity="0.421053" d="M4.11742 41.7458C3.78846 45.5706 5.76895 54.3218 16.3225 58.7278C29.5145 64.2353 41.9782 57.9315 55.3193 61.0517C65.166 63.3546 87.7125 74.0246 92.3587 89.69" stroke="url(#paint7_linear_55_2581)"/>
<path opacity="0.473684" d="M5.60254 35.9231C4.88781 39.6915 5.97067 48.6083 16.02 54.1281C28.5816 61.0278 41.6158 56.1025 54.5677 60.6441C64.1271 63.9962 85.4688 77.0388 88.5021 93.1193" stroke="url(#paint8_linear_55_2581)"/>
<path opacity="0.526316" d="M7.54483 30.4081C6.45215 34.0789 6.62553 43.0636 16.0605 49.6367C27.8541 57.8531 41.316 54.3602 53.7367 60.2734C62.9041 64.6379 82.8073 79.9103 84.1945 96.2298" stroke="url(#paint9_linear_55_2581)"/>
<path opacity="0.578947" d="M9.9106 25.2487C8.45195 28.7815 7.71394 37.7356 16.4311 45.2901C27.3276 54.7331 41.0697 52.7109 52.8231 59.9311C61.498 65.2601 79.7446 82.5949 79.4705 98.9746" stroke="url(#paint10_linear_55_2581)"/>
<path opacity="0.631579" d="M12.6616 20.4884C10.8529 23.8446 9.21161 32.6701 17.1155 41.1231C26.9954 51.6894 40.8672 51.1599 51.8246 59.6079C59.9119 65.8431 76.302 85.0504 74.3697 101.311" stroke="url(#paint11_linear_55_2581)"/>
<path opacity="0.684211" d="M15.7551 16.1667C13.6163 19.3094 11.0897 27.9097 18.0937 37.1686C26.8488 48.7423 40.6982 49.7115 50.7395 59.2947C58.1508 66.3677 72.5048 87.2371 68.9353 103.2" stroke="url(#paint12_linear_55_2581)"/>
<path opacity="0.736842" d="M19.145 12.3179C16.6994 15.2128 13.3152 23.4935 19.3427 33.4569C26.877 45.9112 40.5523 48.3685 49.5675 58.9818C56.2215 66.8153 68.3821 89.118 63.2146 104.609" stroke="url(#paint13_linear_55_2581)"/>
<path opacity="0.789474" d="M22.7816 8.97167C20.0561 11.587 15.8512 19.4575 20.8361 30.0162C27.0671 43.2147 40.4185 47.133 48.3089 58.6603C54.1326 67.1683 63.9666 90.6601 57.2578 105.509" stroke="url(#paint14_linear_55_2581)"/>
<path opacity="0.842105" d="M26.6127 6.15158C23.6371 8.45874 18.6578 15.8327 22.5454 26.8711C27.4048 40.6691 40.2861 46.0056 46.9651 58.3205C51.8948 67.4099 59.2945 91.8334 51.1177 105.877" stroke="url(#paint15_linear_55_2581)"/>
<path opacity="0.894737" d="M30.5839 3.87589C27.3908 5.84956 21.6915 12.6462 24.4393 24.0433C27.874 38.2897 40.1439 44.9859 45.5384 57.9536C49.5201 67.5247 54.4043 92.6122 44.8493 105.698" stroke="url(#paint16_linear_55_2581)"/>
<path opacity="0.947368" d="M34.6392 2.15669C31.2636 3.77524 24.9068 9.92011 26.4846 21.5511C28.4569 36.0898 39.981 44.0723 44.032 57.5506C47.022 67.4986 49.3373 92.9754 38.5087 104.959" stroke="url(#paint17_linear_55_2581)"/>
<path d="M38.7218 1C35.2007 2.24571 28.2561 7.67149 28.6467 19.4089C29.1349 34.0806 39.787 43.262 42.45 57.1033C44.4156 67.3192 44.1366 92.906 32.153 103.656" stroke="url(#paint18_linear_55_2581)"/>
<defs>
<linearGradient id="paint0_linear_55_2581" x1="9.07735" y1="89.235" x2="104.271" y2="59.2506" gradientUnits="userSpaceOnUse">
<stop stop-color="#0B7A96"/>
<stop offset="1" stop-color="#1C05B5"/>
</linearGradient>
<linearGradient id="paint1_linear_55_2581" x1="6.59585" y1="82.8762" x2="104.192" y2="62.7659" gradientUnits="userSpaceOnUse">
<stop stop-color="#0B7A96"/>
<stop offset="1" stop-color="#1C05B5"/>
</linearGradient>
<linearGradient id="paint2_linear_55_2581" x1="4.64768" y1="76.4006" x2="103.684" y2="66.3098" gradientUnits="userSpaceOnUse">
<stop stop-color="#0B7A96"/>
<stop offset="1" stop-color="#1C05B5"/>
</linearGradient>
<linearGradient id="paint3_linear_55_2581" x1="3.24164" y1="69.8661" x2="102.758" y2="69.8661" gradientUnits="userSpaceOnUse">
<stop stop-color="#0B7A96"/>
<stop offset="1" stop-color="#1C05B5"/>
</linearGradient>
<linearGradient id="paint4_linear_55_2581" x1="2.38082" y1="63.3317" x2="101.418" y2="73.4225" gradientUnits="userSpaceOnUse">
<stop stop-color="#0B7A96"/>
<stop offset="1" stop-color="#1C05B5"/>
</linearGradient>
<linearGradient id="paint5_linear_55_2581" x1="2.06211" y1="56.856" x2="99.6582" y2="76.9663" gradientUnits="userSpaceOnUse">
<stop stop-color="#0B7A96"/>
<stop offset="1" stop-color="#1C05B5"/>
</linearGradient>
<linearGradient id="paint6_linear_55_2581" x1="2.27665" y1="50.4972" x2="97.4701" y2="80.4816" gradientUnits="userSpaceOnUse">
<stop stop-color="#0B7A96"/>
<stop offset="1" stop-color="#1C05B5"/>
</linearGradient>
<linearGradient id="paint7_linear_55_2581" x1="3.00966" y1="44.3123" x2="94.8376" y2="83.9465" gradientUnits="userSpaceOnUse">
<stop stop-color="#0B7A96"/>
<stop offset="1" stop-color="#1C05B5"/>
</linearGradient>
<linearGradient id="paint8_linear_55_2581" x1="4.24077" y1="38.3561" x2="91.7423" y2="87.3302" gradientUnits="userSpaceOnUse">
<stop stop-color="#0B7A96"/>
<stop offset="1" stop-color="#1C05B5"/>
</linearGradient>
<linearGradient id="paint9_linear_55_2581" x1="5.94398" y1="32.681" x2="88.1656" y2="90.5916" gradientUnits="userSpaceOnUse">
<stop stop-color="#0B7A96"/>
<stop offset="1" stop-color="#1C05B5"/>
</linearGradient>
<linearGradient id="paint10_linear_55_2581" x1="8.08821" y1="27.3365" x2="84.0931" y2="93.6787" gradientUnits="userSpaceOnUse">
<stop stop-color="#0B7A96"/>
<stop offset="1" stop-color="#1C05B5"/>
</linearGradient>
<linearGradient id="paint11_linear_55_2581" x1="10.6376" y1="22.3683" x2="79.5184" y2="96.5286" gradientUnits="userSpaceOnUse">
<stop stop-color="#0B7A96"/>
<stop offset="1" stop-color="#1C05B5"/>
</linearGradient>
<linearGradient id="paint12_linear_55_2581" x1="13.5517" y1="17.818" x2="74.4466" y2="99.0695" gradientUnits="userSpaceOnUse">
<stop stop-color="#0B7A96"/>
<stop offset="1" stop-color="#1C05B5"/>
</linearGradient>
<linearGradient id="paint13_linear_55_2581" x1="16.7864" y1="13.7226" x2="68.8987" y2="101.223" gradientUnits="userSpaceOnUse">
<stop stop-color="#0B7A96"/>
<stop offset="1" stop-color="#1C05B5"/>
</linearGradient>
<linearGradient id="paint14_linear_55_2581" x1="20.2935" y1="10.1144" x2="62.9128" y2="102.912" gradientUnits="userSpaceOnUse">
<stop stop-color="#0B7A96"/>
<stop offset="1" stop-color="#1C05B5"/>
</linearGradient>
<linearGradient id="paint15_linear_55_2581" x1="24.0224" y1="7.01975" x2="56.5466" y2="104.058" gradientUnits="userSpaceOnUse">
<stop stop-color="#0B7A96"/>
<stop offset="1" stop-color="#1C05B5"/>
</linearGradient>
<linearGradient id="paint16_linear_55_2581" x1="27.9199" y1="4.46001" x2="49.8757" y2="104.595" gradientUnits="userSpaceOnUse">
<stop stop-color="#0B7A96"/>
<stop offset="1" stop-color="#1C05B5"/>
</linearGradient>
<linearGradient id="paint17_linear_55_2581" x1="31.9306" y1="2.45035" x2="42.9918" y2="104.473" gradientUnits="userSpaceOnUse">
<stop stop-color="#0B7A96"/>
<stop offset="1" stop-color="#1C05B5"/>
</linearGradient>
<linearGradient id="paint18_linear_55_2581" x1="35.9983" y1="1" x2="35.9983" y2="103.656" gradientUnits="userSpaceOnUse">
<stop stop-color="#0B7A96"/>
<stop offset="1" stop-color="#1C05B5"/>
</linearGradient>
</defs>
</svg>
