<svg width="107" height="106" viewBox="0 0 107 106" fill="none" xmlns="http://www.w3.org/2000/svg">
<path opacity="0.0344828" d="M14.5917 24.8026C15.0593 24.2586 15.7747 23.9077 16.7512 23.7647C17.7303 23.6214 18.9516 23.6908 20.393 23.972C23.2755 24.5345 26.9729 25.9307 31.2386 28.0492C39.7655 32.284 50.5007 39.3732 61.4171 48.3156C72.3335 57.2579 81.3491 66.3478 87.1017 73.8102C89.9795 77.5435 92.0301 80.8557 93.098 83.5293C93.632 84.8662 93.9141 86.0284 93.9395 86.9946C93.9648 87.9582 93.735 88.707 93.2675 89.251C92.7999 89.795 92.0844 90.1459 91.1079 90.2889C90.1289 90.4323 88.9076 90.3628 87.4662 90.0816C84.5837 89.5191 80.8863 88.1229 76.6206 86.0044C68.0937 81.7696 57.3585 74.6804 46.4421 65.7381C35.5257 56.7958 26.5101 47.7058 20.7575 40.2434C17.8796 36.5101 15.8291 33.1979 14.7612 30.5243C14.2272 29.1874 13.9451 28.0252 13.9197 27.0591C13.8943 26.0954 14.1241 25.3466 14.5917 24.8026Z" stroke="url(#paint0_linear_55_2604)" stroke-width="0.618735"/>
<path opacity="0.0689655" d="M17.6187 21.1761C18.1335 20.6735 18.878 20.3848 19.8635 20.3254C20.8517 20.2659 22.0621 20.439 23.4728 20.8418C26.2939 21.6473 29.8525 23.3528 33.9128 25.8261C42.029 30.7702 52.0903 38.7458 62.1668 48.5828C72.2432 58.4198 80.4128 68.2421 85.4773 76.1655C88.0108 80.1293 89.7578 83.6033 90.5829 86.3574C90.9955 87.7346 91.1728 88.9163 91.1118 89.881C91.051 90.8431 90.7552 91.5699 90.2404 92.0724C89.7256 92.575 88.9811 92.8638 87.9956 92.9231C87.0075 92.9826 85.7971 92.8096 84.3863 92.4068C81.5652 91.6013 78.0067 89.8958 73.9464 87.4224C65.8302 82.4783 55.7688 74.5028 45.6924 64.6658C35.616 54.8287 27.4463 45.0064 22.3819 37.083C19.8483 33.1192 18.1014 29.6452 17.2762 26.8911C16.8636 25.5139 16.6864 24.3323 16.7473 23.3676C16.8081 22.4055 17.1039 21.6787 17.6187 21.1761Z" stroke="url(#paint1_linear_55_2604)" stroke-width="0.618735"/>
<path opacity="0.103448" d="M20.922 17.8193C21.4802 17.3621 22.2481 17.1378 23.2351 17.1625C24.2248 17.1873 25.4151 17.4627 26.7844 17.984C29.5227 19.0264 32.9154 21.028 36.7393 23.8374C44.3831 29.4532 53.6941 38.2543 62.8538 48.9112C72.0136 59.568 79.2752 70.048 83.6129 78.372C85.7829 82.5362 87.213 86.1455 87.7891 88.9592C88.0771 90.3661 88.1483 91.5583 88.0014 92.5141C87.8549 93.4674 87.4954 94.1666 86.9371 94.6239C86.3789 95.0812 85.6111 95.3055 84.6241 95.2807C83.6344 95.2559 82.4441 94.9805 81.0748 94.4593C78.3364 93.4169 74.9438 91.4152 71.1199 88.6058C63.4761 82.9901 54.1651 74.1889 45.0053 63.5321C35.8455 52.8752 28.584 42.3953 24.2463 34.0713C22.0763 29.907 20.6462 26.2978 20.0701 23.4841C19.782 22.0771 19.7109 20.8849 19.8578 19.9291C20.0042 18.9758 20.3638 18.2766 20.922 17.8193Z" stroke="url(#paint2_linear_55_2604)" stroke-width="0.618735"/>
<path opacity="0.137931" d="M24.4764 14.7548C25.0738 14.3464 25.8591 14.1884 26.8402 14.297C27.8239 14.4059 28.9851 14.7815 30.3025 15.4172C32.9372 16.6886 36.1381 18.9712 39.6967 22.0952C46.8099 28.3399 55.2996 37.8996 63.473 49.2952C71.6465 60.6908 77.9447 71.7486 81.5227 80.4098C83.3127 84.7428 84.415 88.4599 84.7377 91.3117C84.8991 92.7377 84.8635 93.9314 84.6319 94.8711C84.4009 95.8082 83.9801 96.4746 83.3827 96.883C82.7853 97.2913 82 97.4494 81.0189 97.3408C80.0352 97.2319 78.8741 96.8563 77.5566 96.2205C74.9219 94.9491 71.721 92.6665 68.1625 89.5425C61.0492 83.2979 52.5596 73.7381 44.3861 62.3425C36.2126 50.9469 29.9144 39.8892 26.3364 31.2279C24.5464 26.895 23.4441 23.1779 23.1214 20.3261C22.9601 18.9 22.9956 17.7064 23.2273 16.7667C23.4583 15.8295 23.879 15.1632 24.4764 14.7548Z" stroke="url(#paint3_linear_55_2604)" stroke-width="0.618735"/>
<path opacity="0.172414" d="M28.2548 12.0029C28.8869 11.6466 29.6837 11.556 30.6514 11.7477C31.6216 11.9399 32.7448 12.4129 34.0004 13.1582C36.5114 14.6489 39.4963 17.1951 42.7623 20.6099C49.2909 27.4359 56.8947 37.6815 64.0196 49.7291C71.1446 61.7767 76.4316 73.3281 79.2227 82.2607C80.619 86.7294 81.3852 90.526 81.4521 93.3943C81.4855 94.8285 81.3435 96.0146 81.0288 96.931C80.7151 97.8449 80.2363 98.4733 79.6043 98.8295C78.9722 99.1858 78.1754 99.2763 77.2077 99.0847C76.2375 98.8925 75.1143 98.4195 73.8587 97.6741C71.3477 96.1835 68.3628 93.6373 65.0968 90.2225C58.5683 83.3965 50.9644 73.1509 43.8395 61.1033C36.7145 49.0557 31.4275 37.5042 28.6364 28.5717C27.2402 24.103 26.4739 20.3064 26.407 17.4381C26.3736 16.0039 26.5156 14.8178 26.8303 13.9014C27.144 12.9875 27.6228 12.3591 28.2548 12.0029Z" stroke="url(#paint4_linear_55_2604)" stroke-width="0.618735"/>
<path opacity="0.206897" d="M32.2286 9.58135C32.8905 9.28001 33.6927 9.2577 34.6395 9.53097C35.589 9.80499 36.6656 10.3717 37.8498 11.221C40.2181 12.9196 42.9642 15.7099 45.9129 19.3896C51.8071 26.745 58.4672 37.5985 64.4894 50.2064C70.5117 62.8143 74.7472 74.7715 76.7302 83.9074C77.7222 88.4778 78.1466 92.3251 77.9571 95.188C77.8624 96.6195 77.615 97.7889 77.2198 98.6751C76.8256 99.5588 76.2925 100.144 75.6305 100.446C74.9686 100.747 74.1664 100.769 73.2196 100.496C72.2702 100.222 71.1936 99.6554 70.0093 98.806C67.641 97.1075 64.895 94.3171 61.9463 90.6375C56.052 83.2821 49.3919 72.4286 43.3697 59.8207C37.3475 47.2128 33.1119 35.2556 31.1289 26.1197C30.1369 21.5493 29.7125 17.702 29.902 14.8391C29.9968 13.4075 30.2441 12.2381 30.6394 11.352C31.0335 10.4682 31.5667 9.88268 32.2286 9.58135Z" stroke="url(#paint5_linear_55_2604)" stroke-width="0.618735"/>
<path opacity="0.241379" d="M36.3674 7.50536C37.7443 7.01611 39.5909 7.70382 41.8214 9.61699C44.0289 11.5105 46.5154 14.5238 49.1243 18.4403C54.3394 26.2691 60.0051 37.6479 64.8788 50.7201C69.7525 63.7924 72.9045 76.0644 74.0642 85.3341C74.6444 89.9715 74.7237 93.8401 74.2794 96.6759C73.8304 99.5411 72.8687 101.227 71.4917 101.716C70.1148 102.205 68.2682 101.517 66.0377 99.6043C63.8302 97.7108 61.3437 94.6975 58.7348 90.781C53.5197 82.9522 47.854 71.5734 42.9803 58.5012C38.1066 45.429 34.9546 33.1569 33.7949 23.8872C33.2147 19.2498 33.1354 15.3812 33.5797 12.5454C34.0287 9.6802 34.9904 7.99462 36.3674 7.50536Z" stroke="url(#paint6_linear_55_2604)" stroke-width="0.618735"/>
<path opacity="0.275862" d="M40.6397 5.78836C42.0557 5.41797 43.834 6.26053 45.8849 8.35596C47.915 10.43 50.1229 13.6433 52.3723 17.7669C56.8685 26.0095 61.4968 37.827 65.1849 51.2641C68.873 64.7012 70.9173 77.1946 71.2451 86.5277C71.409 91.1967 71.1427 95.0573 70.4469 97.8444C69.7439 100.66 68.6354 102.258 67.2194 102.628C65.8035 102.999 64.0252 102.156 61.9742 100.061C59.9442 97.9866 57.7362 94.7733 55.4869 90.6497C50.9907 82.4071 46.3624 70.5896 42.6743 57.1525C38.9862 43.7154 36.9419 31.222 36.6141 21.8889C36.4501 17.2199 36.7165 13.3594 37.4123 10.5723C38.1153 7.75645 39.2238 6.15874 40.6397 5.78836Z" stroke="url(#paint7_linear_55_2604)" stroke-width="0.618735"/>
<path opacity="0.310345" d="M45.0131 4.43939C46.4571 4.19082 48.1536 5.18174 50.0095 7.44351C51.8466 9.68237 53.7592 13.0713 55.6318 17.3705C59.375 25.9642 62.9307 38.1305 65.4051 51.8302C67.8795 65.5299 68.8007 78.1497 68.294 87.475C68.0405 92.1402 67.4305 95.9633 66.4885 98.6806C65.537 101.426 64.29 102.923 62.846 103.172C61.4019 103.42 59.7055 102.429 57.8496 100.168C56.0125 97.9288 54.0999 94.5399 52.2272 90.2407C48.484 81.647 44.9284 69.4807 42.4539 55.781C39.9795 42.0812 39.0584 29.4615 39.5651 20.1361C39.8186 15.471 40.4286 11.6478 41.3705 8.9306C42.3221 6.18555 43.5691 4.68797 45.0131 4.43939Z" stroke="url(#paint8_linear_55_2604)" stroke-width="0.618735"/>
<path opacity="0.344828" d="M49.4544 3.46605C50.9154 3.34127 52.5169 4.47292 54.1637 6.88388C55.794 9.2705 57.3967 12.8092 58.8784 17.2513C61.8401 26.1309 64.2961 38.5533 65.538 52.4114C66.78 66.2695 66.5709 78.9196 65.2337 88.1663C64.5646 92.7921 63.6157 96.5487 62.4347 99.1755C61.2417 101.829 59.8658 103.215 58.4048 103.34C56.9438 103.464 55.3423 102.333 53.6954 99.9219C52.0652 97.5353 50.4624 93.9966 48.9808 89.5544C46.019 80.6749 43.5631 68.2525 42.3211 54.3944C41.0792 40.5363 41.2882 27.8862 42.6255 18.6395C43.2945 14.0137 44.2435 10.257 45.4245 7.6303C46.6175 4.97679 47.9933 3.59084 49.4544 3.46605Z" stroke="url(#paint9_linear_55_2604)" stroke-width="0.618735"/>
<path opacity="0.37931" d="M53.9296 2.87254C55.3962 2.87254 56.8906 4.13622 58.3159 6.67807C59.7269 9.19431 61.0077 12.8559 62.0871 17.4072C64.2448 26.5049 65.5824 39.089 65.5824 53.0001C65.5824 66.9111 64.2448 79.4952 62.0871 88.5929C61.0077 93.1442 59.7269 96.8058 58.3159 99.3221C56.8906 101.864 55.3962 103.128 53.9296 103.128C52.4629 103.128 50.9685 101.864 49.5432 99.3221C48.1322 96.8058 46.8515 93.1442 45.772 88.5929C43.6143 79.4952 42.2767 66.9111 42.2767 53.0001C42.2767 39.089 43.6143 26.5049 45.772 17.4072C46.8515 12.8559 48.1322 9.19431 49.5432 6.67807C50.9685 4.13622 52.4629 2.87254 53.9296 2.87254Z" stroke="url(#paint10_linear_55_2604)" stroke-width="0.618735"/>
<path opacity="0.413793" d="M58.4048 2.66041C59.8658 2.7852 61.2417 4.17115 62.4347 6.82466C63.6157 9.45138 64.5647 13.208 65.2337 17.8339C66.571 27.0806 66.78 39.7306 65.538 53.5887C64.2961 67.4468 61.8402 79.8693 58.8784 88.7488C57.3968 93.1909 55.794 96.7296 54.1637 99.1163C52.5169 101.527 50.9154 102.659 49.4544 102.534C47.9934 102.409 46.6175 101.023 45.4245 98.3698C44.2435 95.7431 43.2946 91.9865 42.6255 87.3606C41.2882 78.1139 41.0792 65.4639 42.3212 51.6058C43.5631 37.7477 46.0191 25.3252 48.9808 16.4457C50.4625 12.0036 52.0652 8.46486 53.6955 6.07824C55.3423 3.66728 56.9438 2.53563 58.4048 2.66041Z" stroke="url(#paint11_linear_55_2604)" stroke-width="0.618735"/>
<path opacity="0.448276" d="M62.846 2.82831C64.2901 3.07688 65.537 4.57447 66.4886 7.31952C67.4305 10.0368 68.0406 13.8599 68.294 18.5251C68.8007 27.8504 67.8796 40.4702 65.4052 54.1699C62.9307 67.8696 59.3751 80.0359 55.6319 88.6296C53.7593 92.9288 51.8466 96.3177 50.0095 98.5566C48.1536 100.818 46.4572 101.809 45.0131 101.561C43.5691 101.312 42.3222 99.8145 41.3706 97.0695C40.4286 94.3522 39.8186 90.5291 39.5651 85.8639C39.0584 76.5386 39.9796 63.9189 42.454 50.2191C44.9284 36.5194 48.4841 24.3531 52.2273 15.7594C54.0999 11.4602 56.0125 8.07129 57.8496 5.83243C59.7056 3.57066 61.402 2.57973 62.846 2.82831Z" stroke="url(#paint12_linear_55_2604)" stroke-width="0.618735"/>
<path opacity="0.482759" d="M67.2194 3.37209C68.6353 3.74248 69.7439 5.34019 70.4468 8.15599C71.1426 10.9431 71.409 14.8037 71.245 19.4727C70.9173 28.8057 68.873 41.2991 65.1849 54.7363C61.4968 68.1734 56.8685 79.9908 52.3722 88.2335C50.1229 92.357 47.915 95.5703 45.8849 97.6444C43.834 99.7398 42.0557 100.582 40.6397 100.212C39.2238 99.8416 38.1153 98.2439 37.4123 95.4281C36.7165 92.641 36.4501 88.7804 36.6141 84.1114C36.9419 74.7784 38.9862 62.285 42.6743 48.8479C46.3623 35.4107 50.9907 23.5933 55.4869 15.3506C57.7362 11.2271 59.9441 8.01378 61.9742 5.93969C64.0252 3.84427 65.8035 3.00171 67.2194 3.37209Z" stroke="url(#paint13_linear_55_2604)" stroke-width="0.618735"/>
<path opacity="0.517241" d="M71.4917 4.28399C72.8687 4.77325 73.8304 6.45883 74.2794 9.32406C74.7237 12.1599 74.6444 16.0285 74.0642 20.6658C72.9045 29.9356 69.7525 42.2076 64.8788 55.2798C60.0051 68.352 54.3394 79.7308 49.1243 87.5596C46.5154 91.4761 44.0289 94.4894 41.8214 96.383C39.5909 98.2961 37.7443 98.9838 36.3674 98.4946C34.9904 98.0053 34.0287 96.3197 33.5797 93.4545C33.1354 90.6187 33.2147 86.7501 33.7949 82.1127C34.9546 72.843 38.1066 60.571 42.9803 47.4988C47.854 34.4265 53.5197 23.0477 58.7348 15.2189C61.3437 11.3024 63.8302 8.28914 66.0377 6.39561C68.2682 4.48245 70.1148 3.79474 71.4917 4.28399Z" stroke="url(#paint14_linear_55_2604)" stroke-width="0.618735"/>
<path opacity="0.551724" d="M75.6305 5.5545C76.2924 5.85583 76.8256 6.44139 77.2197 7.32512C77.615 8.21128 77.8623 9.38068 77.9571 10.8122C78.1466 13.6752 77.7222 17.5224 76.7302 22.0928C74.7472 31.2287 70.5116 43.186 64.4894 55.7938C58.4672 68.4017 51.8071 79.2552 45.9128 86.6106C42.9641 90.2903 40.2181 93.0806 37.8498 94.7792C36.6655 95.6285 35.5889 96.1952 34.6395 96.4693C33.6927 96.7425 32.8905 96.7202 32.2286 96.4189C31.5666 96.1175 31.0335 95.532 30.6393 94.6483C30.2441 93.7621 29.9967 92.5927 29.902 91.1611C29.7125 88.2982 30.1369 84.451 31.1289 79.8806C33.1118 70.7446 37.3474 58.7874 43.3697 46.1795C49.3919 33.5716 56.052 22.7181 61.9462 15.3627C64.8949 11.6831 67.641 8.89274 70.0093 7.19418C71.1935 6.34485 72.2701 5.77814 73.2196 5.50412C74.1664 5.23085 74.9686 5.25316 75.6305 5.5545Z" stroke="url(#paint15_linear_55_2604)" stroke-width="0.618735"/>
<path opacity="0.586207" d="M79.6043 7.1706C80.2364 7.52686 80.7151 8.15524 81.0289 9.06915C81.3436 9.98557 81.4855 11.1716 81.4521 12.6059C81.3853 15.4741 80.619 19.2708 79.2227 23.7394C76.4317 32.672 71.1446 44.2235 64.0197 56.271C56.8947 68.3186 49.2909 78.5643 42.7624 85.3902C39.4963 88.8051 36.5115 91.3512 34.0004 92.8419C32.7448 93.5873 31.6217 94.0602 30.6514 94.2524C29.6838 94.4441 28.887 94.3535 28.2549 93.9973C27.6228 93.641 27.1441 93.0126 26.8303 92.0987C26.5157 91.1823 26.3737 89.9963 26.4071 88.562C26.4739 85.6937 27.2402 81.8971 28.6365 77.4284C31.4276 68.4959 36.7146 56.9444 43.8395 44.8968C50.9645 32.8493 58.5683 22.6036 65.0969 15.7776C68.3629 12.3628 71.3477 9.81665 73.8588 8.32599C75.1144 7.58062 76.2375 7.10766 77.2078 6.91546C78.1754 6.72379 78.9722 6.81434 79.6043 7.1706Z" stroke="url(#paint16_linear_55_2604)" stroke-width="0.618735"/>
<path opacity="0.62069" d="M83.3827 9.11724C83.9801 9.52561 84.4008 10.192 84.6318 11.1291C84.8634 12.0688 84.899 13.2625 84.7377 14.6885C84.415 17.5403 83.3126 21.2574 81.5227 25.5904C77.9447 34.2516 71.6465 45.3094 63.473 56.705C55.2995 68.1006 46.8099 77.6604 39.6966 83.905C36.1381 87.029 32.9372 89.3116 30.3025 90.583C28.985 91.2187 27.8239 91.5943 26.8402 91.7032C25.8591 91.8118 25.0738 91.6538 24.4764 91.2454C23.879 90.8371 23.4582 90.1707 23.2272 89.2335C22.9956 88.2938 22.96 87.1002 23.1214 85.6742C23.444 82.8223 24.5464 79.1052 26.3364 74.7723C29.9143 66.1111 36.2126 55.0533 44.3861 43.6577C52.5595 32.2621 61.0492 22.7023 68.1624 16.4577C71.721 13.3337 74.9219 11.0511 77.5566 9.7797C78.874 9.14395 80.0352 8.76834 81.0189 8.65943C82 8.55082 82.7853 8.70887 83.3827 9.11724Z" stroke="url(#paint17_linear_55_2604)" stroke-width="0.618735"/>
<path opacity="0.655172" d="M86.9371 11.3762C87.4953 11.8335 87.8549 12.5327 88.0014 13.486C88.1482 14.4418 88.0771 15.634 87.789 17.041C87.213 19.8547 85.7829 23.4639 83.6129 27.6282C79.2752 35.9522 72.0136 46.4321 62.8538 57.0889C53.694 67.7458 44.3831 76.547 36.7393 82.1627C32.9153 84.9721 29.5227 86.9737 26.7844 88.0162C25.4151 88.5374 24.2248 88.8128 23.2351 88.8376C22.248 88.8623 21.4802 88.6381 20.922 88.1808C20.3638 87.7235 20.0042 87.0243 19.8577 86.071C19.7109 85.1152 19.782 83.923 20.0701 82.5161C20.6461 79.7024 22.0762 76.0931 24.2462 71.9289C28.5839 63.6049 35.8455 53.1249 45.0053 42.4681C54.1651 31.8112 63.476 23.01 71.1198 17.3943C74.9438 14.5849 78.3364 12.5833 81.0747 11.5409C82.444 11.0196 83.6343 10.7442 84.624 10.7194C85.6111 10.6947 86.3789 10.919 86.9371 11.3762Z" stroke="url(#paint18_linear_55_2604)" stroke-width="0.618735"/>
<path opacity="0.689655" d="M90.2404 13.9277C90.7552 14.4303 91.051 15.1571 91.1118 16.1192C91.1728 17.0838 90.9955 18.2655 90.5829 19.6427C89.7578 22.3968 88.0108 25.8708 85.4773 29.8346C80.4128 37.758 72.2432 47.5803 62.1668 57.4173C52.0903 67.2544 42.029 75.2299 33.9128 80.174C29.8525 82.6474 26.2939 84.3528 23.4728 85.1583C22.0621 85.5611 20.8517 85.7342 19.8635 85.6747C18.878 85.6153 18.1335 85.3266 17.6187 84.824C17.1039 84.3214 16.8081 83.5946 16.7473 82.6325C16.6864 81.6679 16.8636 80.4862 17.2762 79.109C18.1014 76.3549 19.8483 72.8809 22.3819 68.9171C27.4463 60.9937 35.616 51.1714 45.6924 41.3344C55.7688 31.4974 65.8302 23.5218 73.9464 18.5777C78.0067 16.1043 81.5652 14.3989 84.3863 13.5934C85.7971 13.1906 87.0075 13.0175 87.9956 13.077C88.9811 13.1364 89.7256 13.4251 90.2404 13.9277Z" stroke="url(#paint19_linear_55_2604)" stroke-width="0.618735"/>
<path opacity="0.724138" d="M93.2675 16.7491C93.735 17.2931 93.9648 18.0418 93.9395 19.0055C93.9141 19.9717 93.632 21.1338 93.098 22.4707C92.0301 25.1443 89.9795 28.4566 87.1017 32.1898C81.349 39.6523 72.3335 48.7422 61.4171 57.6845C50.5007 66.6268 39.7655 73.716 31.2386 77.9508C26.9729 80.0693 23.2755 81.4656 20.393 82.028C18.9516 82.3093 17.7303 82.3787 16.7512 82.2353C15.7747 82.0923 15.0593 81.7414 14.5917 81.1974C14.1241 80.6534 13.8943 79.9046 13.9197 78.941C13.945 77.9748 14.2272 76.8127 14.7612 75.4757C15.8291 72.8022 17.8796 69.4899 20.7575 65.7567C26.5101 58.2942 35.5257 49.2043 46.4421 40.262C57.3584 31.3197 68.0937 24.2304 76.6205 19.9957C80.8863 17.8771 84.5837 16.4809 87.4661 15.9185C88.9075 15.6372 90.1289 15.5678 91.1079 15.7111C92.0844 15.8541 92.7999 16.2051 93.2675 16.7491Z" stroke="url(#paint20_linear_55_2604)" stroke-width="0.618735"/>
<path opacity="0.758621" d="M95.9952 19.8157C96.412 20.3969 96.5742 21.162 96.4629 22.1198C96.3513 23.0801 95.9665 24.2139 95.3151 25.5004C94.0125 28.0731 91.674 31.1984 88.4738 34.6726C82.0767 41.6173 72.2838 49.9056 60.6105 57.8852C48.9373 65.8647 37.6099 72.0136 28.7372 75.5068C24.2985 77.2544 20.4904 78.3307 17.5685 78.6458C16.1074 78.8033 14.8845 78.7686 13.9219 78.5425C12.9619 78.3169 12.2809 77.9065 11.864 77.3253C11.4471 76.7441 11.285 75.979 11.3963 75.0212C11.5078 74.0608 11.8926 72.9271 12.544 71.6406C13.8466 69.0679 16.1852 65.9426 19.3854 62.4684C25.7825 55.5237 35.5754 47.2353 47.2487 39.2558C58.9219 31.2763 70.2493 25.1274 79.122 21.6342C83.5607 19.8866 87.3688 18.8102 90.2907 18.4952C91.7518 18.3376 92.9747 18.3724 93.9372 18.5985C94.8973 18.824 95.5783 19.2344 95.9952 19.8157Z" stroke="url(#paint21_linear_55_2604)" stroke-width="0.618735"/>
<path opacity="0.793103" d="M98.4028 23.1012C98.7659 23.7152 98.8592 24.4908 98.6628 25.4356C98.4659 26.3828 97.9814 27.4795 97.2176 28.7058C95.6902 31.1579 93.0814 34.0725 89.5831 37.2612C82.5903 43.6353 72.0946 51.059 59.7533 58.0149C47.4119 64.9709 35.5786 70.1327 26.4277 72.8577C21.8498 74.221 17.9599 74.9693 15.0209 75.0345C13.5512 75.0672 12.336 74.9285 11.3973 74.6213C10.461 74.315 9.81959 73.8483 9.45648 73.2343C9.09338 72.6203 9.00009 71.8447 9.19645 70.9C9.39332 69.9528 9.87788 68.856 10.6417 67.6298C12.1691 65.1776 14.7778 62.2631 18.2761 59.0743C25.269 52.7002 35.7647 45.2766 48.106 38.3206C60.4473 31.3646 72.2807 26.2028 81.4316 23.4778C86.0095 22.1146 89.8994 21.3663 92.8384 21.301C94.3081 21.2684 95.5233 21.4071 96.462 21.7142C97.3983 22.0206 98.0397 22.4872 98.4028 23.1012Z" stroke="url(#paint22_linear_55_2604)" stroke-width="0.618735"/>
<path opacity="0.827586" d="M100.472 26.5776C100.778 27.2197 100.802 28 100.522 28.9245C100.242 29.8513 99.6609 30.9027 98.7905 32.0594C97.0499 34.3723 94.1908 37.0539 90.4211 39.9329C82.8857 45.6878 71.767 52.1903 58.8516 58.0697C45.9362 63.9492 33.6869 68.0846 24.3274 70.0206C19.6451 70.9892 15.7031 71.4037 12.7694 71.2187C11.3022 71.1261 10.104 70.8845 9.1963 70.4987C8.29092 70.1138 7.69393 69.5945 7.38725 68.9524C7.08056 68.3103 7.05677 67.53 7.33673 66.6056C7.61741 65.6787 8.19806 64.6274 9.06849 63.4707C10.8091 61.1577 13.6682 58.4762 17.4379 55.5971C24.9733 49.8422 36.092 43.3398 49.0074 37.4603C61.9228 31.5808 74.1721 27.4455 83.5316 25.5094C88.2139 24.5408 92.1559 24.1263 95.0896 24.3114C96.5568 24.4039 97.755 24.6455 98.6627 25.0314C99.5681 25.4162 100.165 25.9356 100.472 26.5776Z" stroke="url(#paint23_linear_55_2604)" stroke-width="0.618735"/>
<path opacity="0.862069" d="M102.187 30.2155C102.435 30.8808 102.389 31.6599 102.027 32.5571C101.665 33.4565 100.993 34.4545 100.022 35.5328C98.0818 37.6889 94.9941 40.117 90.9816 42.6644C82.961 47.7564 71.304 53.288 57.9128 58.0463C44.5215 62.8045 31.9496 65.8819 22.4527 67.0143C17.7017 67.5808 13.7377 67.6583 10.8314 67.2243C9.37809 67.0073 8.20594 66.6646 7.33615 66.203C6.46856 65.7426 5.92048 65.1745 5.67244 64.5092C5.4244 63.844 5.47024 63.0649 5.83168 62.1677C6.19404 61.2683 6.86636 60.2703 7.83679 59.192C9.77732 57.0359 12.865 54.6078 16.8775 52.0604C24.8981 46.9684 36.5551 41.4368 49.9463 36.6785C63.3376 31.9203 75.9095 28.8429 85.4064 27.7105C90.1574 27.144 94.1214 27.0665 97.0277 27.5005C98.481 27.7175 99.6532 28.0602 100.523 28.5218C101.391 28.9822 101.939 29.5503 102.187 30.2155Z" stroke="url(#paint24_linear_55_2604)" stroke-width="0.618735"/>
<path opacity="0.896552" d="M103.534 33.984C103.722 34.6675 103.607 35.4395 103.167 36.3025C102.725 37.1676 101.966 38.1047 100.903 39.0963C98.7776 41.0792 95.4848 43.2354 91.2602 45.4317C82.8154 49.8219 70.7089 54.3407 56.9437 57.9414C43.1786 61.5422 30.3796 63.5382 20.8177 63.8583C16.0342 64.0184 12.0782 63.7583 9.22169 63.0787C7.79319 62.7388 6.65605 62.2977 5.83079 61.7639C5.00759 61.2313 4.51251 60.6189 4.32491 59.9354C4.13731 59.2519 4.25241 58.4799 4.69258 57.6169C5.13385 56.7518 5.89273 55.8147 6.95578 54.8231C9.08149 52.8402 12.3743 50.684 16.599 48.4877C25.0437 44.0975 37.1502 39.5787 50.9154 35.9779C64.6805 32.3772 77.4795 30.3812 87.0414 30.0611C91.8249 29.901 95.7809 30.1611 98.6374 30.8407C100.066 31.1806 101.203 31.6217 102.028 32.1555C102.852 32.6881 103.347 33.3005 103.534 33.984Z" stroke="url(#paint25_linear_55_2604)" stroke-width="0.618735"/>
<path opacity="0.931035" d="M104.504 37.8512C104.63 38.5478 104.446 39.3069 103.931 40.1292C103.414 40.9535 102.574 41.8225 101.427 42.7199C99.1321 44.5144 95.6593 46.3823 91.2546 48.2108C82.45 51.8658 69.986 55.3373 55.9518 57.7532C41.9175 60.169 28.989 61.0684 19.4348 60.5737C14.6552 60.3262 10.7374 59.7305 7.95234 58.8104C6.55958 58.3502 5.46613 57.8141 4.69167 57.212C3.91914 56.6115 3.48076 55.9594 3.35494 55.2628C3.22912 54.5662 3.41261 53.8071 3.92816 52.9848C4.44499 52.1605 5.28465 51.2916 6.43221 50.3941C8.72691 48.5996 12.1998 46.7317 16.6044 44.9032C25.4091 41.2482 37.873 37.7767 51.9073 35.3609C65.9416 32.945 78.8701 32.0456 88.4243 32.5403C93.2039 32.7879 97.1217 33.3835 99.9067 34.3036C101.299 34.7638 102.393 35.2999 103.167 35.902C103.94 36.5025 104.378 37.1546 104.504 37.8512Z" stroke="url(#paint26_linear_55_2604)" stroke-width="0.618735"/>
<path opacity="0.965517" d="M105.089 41.7849C105.152 42.4894 104.902 43.2299 104.315 44.0052C103.726 44.7824 102.812 45.5766 101.589 46.373C99.1427 47.9655 95.5163 49.5308 90.9651 50.9775C81.8676 53.8695 69.1411 56.2673 54.9446 57.4799C40.748 58.6924 27.7883 58.4884 18.3146 57.1826C13.5753 56.5294 9.72551 55.6026 7.03321 54.449C5.6868 53.8721 4.64537 53.2449 3.92761 52.5793C3.21162 51.9153 2.83321 51.2285 2.77007 50.524C2.70694 49.8195 2.95743 49.079 3.54443 48.3037C4.13289 47.5265 5.04694 46.7323 6.27028 45.9359C8.71649 44.3434 12.3429 42.7781 16.8941 41.3314C25.9916 38.4394 38.7181 36.0415 52.9146 34.829C67.1112 33.6165 80.0709 33.8205 89.5445 35.1263C94.2839 35.7795 98.1337 36.7063 100.826 37.8599C102.172 38.4368 103.214 39.064 103.932 39.7296C104.648 40.3936 105.026 41.0804 105.089 41.7849Z" stroke="url(#paint27_linear_55_2604)" stroke-width="0.618735"/>
<path d="M105.285 45.7517C105.285 46.4588 104.969 47.1752 104.315 47.8976C103.659 48.6218 102.678 49.3352 101.388 50.0244C98.809 51.4027 95.0566 52.6535 90.3936 53.7075C81.0725 55.8144 68.1804 57.1203 53.9296 57.1203C39.6788 57.1203 26.7866 55.8144 17.4655 53.7075C12.8025 52.6535 9.05014 51.4027 6.47105 50.0244C5.18127 49.3352 4.19978 48.6218 3.54418 47.8976C2.8902 47.1752 2.57457 46.4588 2.57457 45.7517C2.57457 45.0445 2.8902 44.3282 3.54418 43.6058C4.19978 42.8816 5.18127 42.1682 6.47105 41.4789C9.05014 40.1006 12.8025 38.8498 17.4655 37.7958C26.7866 35.6889 39.6788 34.383 53.9296 34.383C68.1804 34.383 81.0725 35.6889 90.3936 37.7958C95.0566 38.8498 98.809 40.1006 101.388 41.4789C102.678 42.1682 103.659 42.8816 104.315 43.6058C104.969 44.3282 105.285 45.0445 105.285 45.7517Z" stroke="url(#paint28_linear_55_2604)" stroke-width="0.618735"/>
<defs>
<linearGradient id="paint0_linear_55_2604" x1="46.2404" y1="65.9727" x2="61.1866" y2="47.727" gradientUnits="userSpaceOnUse">
<stop stop-color="#611D56"/>
<stop offset="1" stop-color="#C73BB0"/>
</linearGradient>
<linearGradient id="paint1_linear_55_2604" x1="45.471" y1="64.8819" x2="61.9814" y2="47.9696" gradientUnits="userSpaceOnUse">
<stop stop-color="#611D56"/>
<stop offset="1" stop-color="#C73BB0"/>
</linearGradient>
<linearGradient id="paint2_linear_55_2604" x1="44.766" y1="63.7281" x2="62.7276" y2="48.2898" gradientUnits="userSpaceOnUse">
<stop stop-color="#611D56"/>
<stop offset="1" stop-color="#C73BB0"/>
</linearGradient>
<linearGradient id="paint3_linear_55_2604" x1="44.1307" y1="62.5171" x2="63.4159" y2="48.6849" gradientUnits="userSpaceOnUse">
<stop stop-color="#611D56"/>
<stop offset="1" stop-color="#C73BB0"/>
</linearGradient>
<linearGradient id="paint4_linear_55_2604" x1="43.57" y1="61.2552" x2="64.037" y2="49.1509" gradientUnits="userSpaceOnUse">
<stop stop-color="#611D56"/>
<stop offset="1" stop-color="#C73BB0"/>
</linearGradient>
<linearGradient id="paint5_linear_55_2604" x1="43.0881" y1="59.9489" x2="64.5819" y2="49.6822" gradientUnits="userSpaceOnUse">
<stop stop-color="#611D56"/>
<stop offset="1" stop-color="#C73BB0"/>
</linearGradient>
<linearGradient id="paint6_linear_55_2604" x1="42.6888" y1="58.6048" x2="65.0415" y2="50.271" gradientUnits="userSpaceOnUse">
<stop stop-color="#611D56"/>
<stop offset="1" stop-color="#C73BB0"/>
</linearGradient>
<linearGradient id="paint7_linear_55_2604" x1="42.375" y1="57.2308" x2="65.4082" y2="50.9089" gradientUnits="userSpaceOnUse">
<stop stop-color="#611D56"/>
<stop offset="1" stop-color="#C73BB0"/>
</linearGradient>
<linearGradient id="paint8_linear_55_2604" x1="42.1491" y1="55.8335" x2="65.6751" y2="51.5842" gradientUnits="userSpaceOnUse">
<stop stop-color="#611D56"/>
<stop offset="1" stop-color="#C73BB0"/>
</linearGradient>
<linearGradient id="paint9_linear_55_2604" x1="42.0129" y1="54.4207" x2="65.8374" y2="52.2856" gradientUnits="userSpaceOnUse">
<stop stop-color="#611D56"/>
<stop offset="1" stop-color="#C73BB0"/>
</linearGradient>
<linearGradient id="paint10_linear_55_2604" x1="41.9673" y1="53.0001" x2="65.8918" y2="53.0001" gradientUnits="userSpaceOnUse">
<stop stop-color="#611D56"/>
<stop offset="1" stop-color="#C73BB0"/>
</linearGradient>
<linearGradient id="paint11_linear_55_2604" x1="42.0129" y1="51.5794" x2="65.8374" y2="53.7145" gradientUnits="userSpaceOnUse">
<stop stop-color="#611D56"/>
<stop offset="1" stop-color="#C73BB0"/>
</linearGradient>
<linearGradient id="paint12_linear_55_2604" x1="42.1491" y1="50.1666" x2="65.6751" y2="54.4159" gradientUnits="userSpaceOnUse">
<stop stop-color="#611D56"/>
<stop offset="1" stop-color="#C73BB0"/>
</linearGradient>
<linearGradient id="paint13_linear_55_2604" x1="42.375" y1="48.7696" x2="65.4082" y2="55.0915" gradientUnits="userSpaceOnUse">
<stop stop-color="#611D56"/>
<stop offset="1" stop-color="#C73BB0"/>
</linearGradient>
<linearGradient id="paint14_linear_55_2604" x1="42.6887" y1="47.3952" x2="65.0415" y2="55.7289" gradientUnits="userSpaceOnUse">
<stop stop-color="#611D56"/>
<stop offset="1" stop-color="#C73BB0"/>
</linearGradient>
<linearGradient id="paint15_linear_55_2604" x1="43.0881" y1="46.0514" x2="64.5818" y2="56.318" gradientUnits="userSpaceOnUse">
<stop stop-color="#611D56"/>
<stop offset="1" stop-color="#C73BB0"/>
</linearGradient>
<linearGradient id="paint16_linear_55_2604" x1="43.57" y1="44.7449" x2="64.0371" y2="56.8492" gradientUnits="userSpaceOnUse">
<stop stop-color="#611D56"/>
<stop offset="1" stop-color="#C73BB0"/>
</linearGradient>
<linearGradient id="paint17_linear_55_2604" x1="44.1307" y1="43.4831" x2="63.4158" y2="57.3154" gradientUnits="userSpaceOnUse">
<stop stop-color="#611D56"/>
<stop offset="1" stop-color="#C73BB0"/>
</linearGradient>
<linearGradient id="paint18_linear_55_2604" x1="44.766" y1="42.272" x2="62.7275" y2="57.7104" gradientUnits="userSpaceOnUse">
<stop stop-color="#611D56"/>
<stop offset="1" stop-color="#C73BB0"/>
</linearGradient>
<linearGradient id="paint19_linear_55_2604" x1="45.471" y1="41.1183" x2="61.9814" y2="58.0305" gradientUnits="userSpaceOnUse">
<stop stop-color="#611D56"/>
<stop offset="1" stop-color="#C73BB0"/>
</linearGradient>
<linearGradient id="paint20_linear_55_2604" x1="46.2404" y1="40.0274" x2="61.1866" y2="58.2731" gradientUnits="userSpaceOnUse">
<stop stop-color="#611D56"/>
<stop offset="1" stop-color="#C73BB0"/>
</linearGradient>
<linearGradient id="paint21_linear_55_2604" x1="47.0683" y1="39.0044" x2="60.3517" y2="58.4367" gradientUnits="userSpaceOnUse">
<stop stop-color="#611D56"/>
<stop offset="1" stop-color="#C73BB0"/>
</linearGradient>
<linearGradient id="paint22_linear_55_2604" x1="47.9485" y1="38.0543" x2="59.4845" y2="58.5215" gradientUnits="userSpaceOnUse">
<stop stop-color="#611D56"/>
<stop offset="1" stop-color="#C73BB0"/>
</linearGradient>
<linearGradient id="paint23_linear_55_2604" x1="48.8741" y1="37.1812" x2="58.5917" y2="58.5279" gradientUnits="userSpaceOnUse">
<stop stop-color="#611D56"/>
<stop offset="1" stop-color="#C73BB0"/>
</linearGradient>
<linearGradient id="paint24_linear_55_2604" x1="49.8382" y1="36.3887" x2="57.6797" y2="58.4573" gradientUnits="userSpaceOnUse">
<stop stop-color="#611D56"/>
<stop offset="1" stop-color="#C73BB0"/>
</linearGradient>
<linearGradient id="paint25_linear_55_2604" x1="50.8335" y1="35.6796" x2="56.7535" y2="58.311" gradientUnits="userSpaceOnUse">
<stop stop-color="#611D56"/>
<stop offset="1" stop-color="#C73BB0"/>
</linearGradient>
<linearGradient id="paint26_linear_55_2604" x1="51.8523" y1="35.0564" x2="55.8173" y2="58.0902" gradientUnits="userSpaceOnUse">
<stop stop-color="#611D56"/>
<stop offset="1" stop-color="#C73BB0"/>
</linearGradient>
<linearGradient id="paint27_linear_55_2604" x1="52.887" y1="34.5209" x2="54.875" y2="57.7963" gradientUnits="userSpaceOnUse">
<stop stop-color="#611D56"/>
<stop offset="1" stop-color="#C73BB0"/>
</linearGradient>
<linearGradient id="paint28_linear_55_2604" x1="53.9296" y1="34.0737" x2="53.9296" y2="57.4297" gradientUnits="userSpaceOnUse">
<stop stop-color="#611D56"/>
<stop offset="1" stop-color="#C73BB0"/>
</linearGradient>
</defs>
</svg>
