<svg width="1239" height="1930" viewBox="0 0 1239 1930" fill="none" xmlns="http://www.w3.org/2000/svg">
<path opacity="0.0526316" d="M-323.131 1589.69C-278.838 1629.23 -152.675 1684.15 -2.37762 1587.6C185.495 1466.91 220.749 1246.82 380.465 1102.19C498.347 995.443 834.981 800.765 1070.82 884.778" stroke="url(#paint0_linear_55_2442)" stroke-opacity="0.33"/>
<path opacity="0.105263" d="M-378.052 1498.64C-337.959 1542.66 -217.9 1610.78 -58.4134 1531.05C140.945 1431.39 198.42 1216.59 372.172 1090.12C500.414 996.777 855.438 839.626 1081.76 948.428" stroke="url(#paint1_linear_55_2442)" stroke-opacity="0.33"/>
<path opacity="0.157895" d="M-425.015 1404.48C-389.561 1452.51 -276.922 1533.08 -109.993 1471.04C98.6678 1393.5 177.733 1186.34 363.617 1079.42C500.814 1000.5 870.338 882.603 1084.67 1015" stroke="url(#paint2_linear_55_2442)" stroke-opacity="0.33"/>
<path opacity="0.210526" d="M-463.738 1308.09C-433.313 1359.61 -329.327 1451.74 -156.786 1408.08C58.8918 1353.5 158.681 1156.26 354.662 1070.05C499.31 1006.43 879.285 929.068 1079.27 1083.61" stroke="url(#paint3_linear_55_2442)" stroke-opacity="0.33"/>
<path opacity="0.263158" d="M-494.029 1210.37C-468.966 1264.81 -374.773 1367.5 -198.508 1342.69C21.8224 1311.68 141.242 1126.51 345.172 1061.97C495.687 1014.33 881.95 978.361 1065.41 1153.36" stroke="url(#paint4_linear_55_2442)" stroke-opacity="0.33"/>
<path opacity="0.315789" d="M-515.789 1112.24C-496.362 1169.01 -412.994 1281.12 -234.938 1275.44C-12.3679 1268.33 125.374 1097.27 335.018 1055.1C489.751 1023.97 878.071 1029.79 1042.98 1223.32" stroke="url(#paint5_linear_55_2442)" stroke-opacity="0.33"/>
<path opacity="0.368421" d="M-529.011 1014.63C-515.433 1073.09 -443.803 1193.41 -265.906 1206.91C-43.5357 1223.79 111.02 1068.7 324.081 1049.36C481.337 1035.09 867.459 1082.62 1012.02 1292.57" stroke="url(#paint6_linear_55_2442)" stroke-opacity="0.33"/>
<path opacity="0.421053" d="M-533.782 918.433C-526.202 977.963 -467.094 1105.16 -291.306 1137.7C-71.5715 1178.38 98.1041 1040.97 312.249 1044.67C470.303 1047.41 849.997 1136.14 972.627 1360.2" stroke="url(#paint7_linear_55_2442)" stroke-opacity="0.33"/>
<path opacity="0.473684" d="M-530.281 824.564C-528.781 884.504 -482.844 1017.19 -311.091 1068.41C-96.3989 1132.44 86.5377 1014.22 299.419 1040.92C456.542 1060.64 825.647 1189.59 925 1425.32" stroke="url(#paint8_linear_55_2442)" stroke-opacity="0.33"/>
<path opacity="0.526316" d="M-518.779 733.891C-523.377 793.583 -491.113 930.304 -325.276 999.647C-117.979 1086.33 76.2138 988.58 285.5 1038C439.969 1074.48 794.441 1242.24 869.429 1487.04" stroke="url(#paint9_linear_55_2442)" stroke-opacity="0.33"/>
<path opacity="0.578947" d="M-499.634 647.252C-510.279 706.043 -492.043 845.302 -333.939 932.006C-136.309 1040.39 67.0136 964.19 270.411 1035.78C420.534 1088.62 756.491 1293.36 806.291 1544.56" stroke="url(#paint10_linear_55_2442)" stroke-opacity="0.33"/>
<path opacity="0.631579" d="M-473.288 565.445C-489.863 622.691 -485.854 762.961 -337.215 866.076C-151.417 994.97 58.8067 941.158 254.088 1034.13C398.22 1102.75 711.979 1342.23 736.047 1597.07" stroke="url(#paint11_linear_55_2442)" stroke-opacity="0.33"/>
<path opacity="0.684211" d="M-440.261 489.21C-462.585 544.283 -472.847 684.028 -335.302 802.425C-163.371 950.421 51.4508 919.582 236.475 1032.92C373.037 1116.58 661.162 1388.16 659.233 1643.85" stroke="url(#paint12_linear_55_2442)" stroke-opacity="0.33"/>
<path opacity="0.736842" d="M-401.147 419.225C-428.975 471.522 -453.395 609.211 -328.451 741.592C-172.272 907.067 44.7948 899.54 217.536 1032C345.032 1129.77 604.365 1430.49 576.461 1684.23" stroke="url(#paint13_linear_55_2442)" stroke-opacity="0.33"/>
<path opacity="0.789474" d="M-356.608 356.106C-389.635 405.054 -427.946 539.178 -316.972 684.092C-178.255 865.235 38.6783 881.102 197.243 1031.24C314.276 1142.05 541.977 1468.61 488.403 1717.62" stroke="url(#paint14_linear_55_2442)" stroke-opacity="0.33"/>
<path opacity="0.842105" d="M-307.361 300.386C-345.226 345.449 -397.008 474.539 -301.22 630.399C-181.484 825.225 32.938 864.312 175.589 1030.48C280.877 1153.12 474.45 1501.94 395.794 1743.49" stroke="url(#paint15_linear_55_2442)" stroke-opacity="0.33"/>
<path opacity="0.894737" d="M-254.18 252.523C-296.467 293.206 -361.153 415.848 -281.6 580.947C-182.158 787.32 27.4043 849.2 152.579 1029.57C244.968 1162.7 402.293 1529.96 299.416 1761.4" stroke="url(#paint16_linear_55_2442)" stroke-opacity="0.33"/>
<path opacity="0.947368" d="M-197.879 212.885C-244.126 248.744 -321.007 363.594 -258.56 536.122C-180.502 751.782 21.9049 835.776 128.232 1028.38C206.71 1170.54 326.063 1552.21 200.092 1771.01" stroke="url(#paint17_linear_55_2442)" stroke-opacity="0.33"/>
<path d="M-139.306 181.754C-189.005 212.395 -277.239 318.194 -232.584 496.262C-176.764 718.846 16.2693 824.033 102.584 1026.76C166.291 1176.39 246.364 1568.29 98.6799 1772.06" stroke="url(#paint18_linear_55_2442)" stroke-opacity="0.33"/>
<defs>
<linearGradient id="paint0_linear_55_2442" x1="-301.464" y1="1627.75" x2="1054.32" y2="855.805" gradientUnits="userSpaceOnUse">
<stop stop-color="white" stop-opacity="0.36"/>
<stop offset="0.26" stop-color="#999999"/>
<stop offset="0.98" stop-color="#999999" stop-opacity="0"/>
</linearGradient>
<linearGradient id="paint1_linear_55_2442" x1="-360.342" y1="1538.76" x2="1064.7" y2="909.781" gradientUnits="userSpaceOnUse">
<stop stop-color="white" stop-opacity="0.36"/>
<stop offset="0.26" stop-color="#999999"/>
<stop offset="0.98" stop-color="#999999" stop-opacity="0"/>
</linearGradient>
<linearGradient id="paint2_linear_55_2442" x1="-411.455" y1="1446.23" x2="1068.63" y2="965.606" gradientUnits="userSpaceOnUse">
<stop stop-color="white" stop-opacity="0.36"/>
<stop offset="0.26" stop-color="#999999"/>
<stop offset="0.98" stop-color="#999999" stop-opacity="0"/>
</linearGradient>
<linearGradient id="paint3_linear_55_2442" x1="-454.478" y1="1351.02" x2="1066.2" y2="1023" gradientUnits="userSpaceOnUse">
<stop stop-color="white" stop-opacity="0.36"/>
<stop offset="0.26" stop-color="#999999"/>
<stop offset="0.98" stop-color="#999999" stop-opacity="0"/>
</linearGradient>
<linearGradient id="paint4_linear_55_2442" x1="-489.17" y1="1254" x2="1057.43" y2="1081.77" gradientUnits="userSpaceOnUse">
<stop stop-color="white" stop-opacity="0.36"/>
<stop offset="0.26" stop-color="#999999"/>
<stop offset="0.98" stop-color="#999999" stop-opacity="0"/>
</linearGradient>
<linearGradient id="paint5_linear_55_2442" x1="-515.384" y1="1156.1" x2="1042.23" y2="1141.72" gradientUnits="userSpaceOnUse">
<stop stop-color="white" stop-opacity="0.36"/>
<stop offset="0.26" stop-color="#999999"/>
<stop offset="0.98" stop-color="#999999" stop-opacity="0"/>
</linearGradient>
<linearGradient id="paint6_linear_55_2442" x1="-533.065" y1="1058.23" x2="1020.38" y2="1202.64" gradientUnits="userSpaceOnUse">
<stop stop-color="white" stop-opacity="0.36"/>
<stop offset="0.26" stop-color="#999999"/>
<stop offset="0.98" stop-color="#999999" stop-opacity="0"/>
</linearGradient>
<linearGradient id="paint7_linear_55_2442" x1="-542.25" y1="961.303" x2="991.576" y2="1264.27" gradientUnits="userSpaceOnUse">
<stop stop-color="white" stop-opacity="0.36"/>
<stop offset="0.26" stop-color="#999999"/>
<stop offset="0.98" stop-color="#999999" stop-opacity="0"/>
</linearGradient>
<linearGradient id="paint8_linear_55_2442" x1="-543.07" y1="866.231" x2="955.43" y2="1326.17" gradientUnits="userSpaceOnUse">
<stop stop-color="white" stop-opacity="0.36"/>
<stop offset="0.26" stop-color="#999999"/>
<stop offset="0.98" stop-color="#999999" stop-opacity="0"/>
</linearGradient>
<linearGradient id="paint9_linear_55_2442" x1="-535.749" y1="773.898" x2="911.526" y2="1387.8" gradientUnits="userSpaceOnUse">
<stop stop-color="white" stop-opacity="0.36"/>
<stop offset="0.26" stop-color="#999999"/>
<stop offset="0.98" stop-color="#999999" stop-opacity="0"/>
</linearGradient>
<linearGradient id="paint10_linear_55_2442" x1="-520.6" y1="685.162" x2="859.471" y2="1448.4" gradientUnits="userSpaceOnUse">
<stop stop-color="white" stop-opacity="0.36"/>
<stop offset="0.26" stop-color="#999999"/>
<stop offset="0.98" stop-color="#999999" stop-opacity="0"/>
</linearGradient>
<linearGradient id="paint11_linear_55_2442" x1="-498.02" y1="600.842" x2="798.96" y2="1507.02" gradientUnits="userSpaceOnUse">
<stop stop-color="white" stop-opacity="0.36"/>
<stop offset="0.26" stop-color="#999999"/>
<stop offset="0.98" stop-color="#999999" stop-opacity="0"/>
</linearGradient>
<linearGradient id="paint12_linear_55_2442" x1="-468.487" y1="521.706" x2="729.836" y2="1562.57" gradientUnits="userSpaceOnUse">
<stop stop-color="white" stop-opacity="0.36"/>
<stop offset="0.26" stop-color="#999999"/>
<stop offset="0.98" stop-color="#999999" stop-opacity="0"/>
</linearGradient>
<linearGradient id="paint13_linear_55_2442" x1="-432.559" y1="448.464" x2="652.16" y2="1613.77" gradientUnits="userSpaceOnUse">
<stop stop-color="white" stop-opacity="0.36"/>
<stop offset="0.26" stop-color="#999999"/>
<stop offset="0.98" stop-color="#999999" stop-opacity="0"/>
</linearGradient>
<linearGradient id="paint14_linear_55_2442" x1="-390.861" y1="381.768" x2="566.256" y2="1659.29" gradientUnits="userSpaceOnUse">
<stop stop-color="white" stop-opacity="0.36"/>
<stop offset="0.26" stop-color="#999999"/>
<stop offset="0.98" stop-color="#999999" stop-opacity="0"/>
</linearGradient>
<linearGradient id="paint15_linear_55_2442" x1="-344.08" y1="322.19" x2="472.753" y2="1697.79" gradientUnits="userSpaceOnUse">
<stop stop-color="white" stop-opacity="0.36"/>
<stop offset="0.26" stop-color="#999999"/>
<stop offset="0.98" stop-color="#999999" stop-opacity="0"/>
</linearGradient>
<linearGradient id="paint16_linear_55_2442" x1="-292.963" y1="270.229" x2="372.591" y2="1727.99" gradientUnits="userSpaceOnUse">
<stop stop-color="white" stop-opacity="0.36"/>
<stop offset="0.26" stop-color="#999999"/>
<stop offset="0.98" stop-color="#999999" stop-opacity="0"/>
</linearGradient>
<linearGradient id="paint17_linear_55_2442" x1="-238.3" y1="226.301" x2="266.995" y2="1748.81" gradientUnits="userSpaceOnUse">
<stop stop-color="white" stop-opacity="0.36"/>
<stop offset="0.26" stop-color="#999999"/>
<stop offset="0.98" stop-color="#999999" stop-opacity="0"/>
</linearGradient>
<linearGradient id="paint18_linear_55_2442" x1="-180.924" y1="190.731" x2="157.438" y2="1759.38" gradientUnits="userSpaceOnUse">
<stop stop-color="white" stop-opacity="0.36"/>
<stop offset="0.26" stop-color="#999999"/>
<stop offset="0.98" stop-color="#999999" stop-opacity="0"/>
</linearGradient>
</defs>
</svg>
